<svg width="80" height="83" viewBox="0 0 80 83" fill="none" xmlns="http://www.w3.org/2000/svg">
<g clip-path="url(#clip0_1_672)">
<path fill-rule="evenodd" clip-rule="evenodd" d="M52 1L35.3454 64L19.9784 48.0904L27.1686 20.8921H19.9784L1 1H52Z" fill="black"/>
<path fill-rule="evenodd" clip-rule="evenodd" d="M71.959 9.23713H54.1432L56.3449 1H80L71.959 9.23713ZM60.4759 21H51L53.2011 12.7628H68.5169L60.4759 21Z" fill="#EABD23"/>
</g>
<g clip-path="url(#clip1_1_672)">
<path d="M14.9591 81.9222H13.5368V75.2449H11V74H17.4993V75.2449H14.9591V81.9222ZM23.3183 82C22.6687 82 22.1012 81.8656 21.6157 81.5968C21.1325 81.3304 20.7575 80.9626 20.4909 80.4934C20.2242 80.0265 20.0909 79.4948 20.0909 78.8983C20.0909 78.2947 20.2208 77.7607 20.4806 77.2962C20.7382 76.8341 21.0949 76.471 21.5507 76.2069C22.0066 75.9428 22.5263 75.8108 23.1098 75.8108C23.6796 75.8108 24.1867 75.9381 24.6312 76.1927C25.0756 76.4497 25.4255 76.8129 25.6808 77.2821C25.936 77.7489 26.0637 78.2994 26.0637 78.9337C26.0637 78.9926 26.0625 79.0598 26.0603 79.1353C26.0557 79.2107 26.05 79.2826 26.0432 79.351H21.1747V78.4138H25.3218L24.785 78.7073C24.7919 78.3607 24.7223 78.0554 24.5765 77.7913C24.4306 77.5273 24.2323 77.3198 23.9816 77.1689C23.7286 77.018 23.438 76.9425 23.1098 76.9425C22.7747 76.9425 22.4818 77.018 22.2311 77.1689C21.9781 77.3198 21.7809 77.5284 21.6396 77.7949C21.496 78.0637 21.4242 78.3784 21.4242 78.7392V78.9655C21.4242 79.3286 21.5051 79.6493 21.667 79.9275C21.8265 80.2081 22.0522 80.4238 22.3439 80.5747C22.6357 80.7256 22.9719 80.8011 23.3525 80.8011C23.6807 80.8011 23.9759 80.748 24.238 80.6419C24.5001 80.5358 24.7337 80.3696 24.9389 80.1432L25.6705 81.0168C25.4084 81.3327 25.0779 81.5756 24.679 81.7454C24.2824 81.9151 23.8289 82 23.3183 82ZM31.4792 81.9222H30.1117V75.878H31.4143V77.5402L31.2604 77.0557C31.4359 76.6478 31.7117 76.3378 32.0878 76.1256C32.4639 75.9157 32.9323 75.8108 33.493 75.8108V77.1547C33.4337 77.1406 33.379 77.1312 33.3289 77.1264C33.2787 77.1241 33.2274 77.1229 33.175 77.1229C32.6576 77.1229 32.2462 77.2797 31.9408 77.5933C31.6331 77.9045 31.4792 78.3702 31.4792 78.9903V81.9222ZM41.8624 81.9222H40.5701V80.6985L40.4949 80.4368V78.3006C40.4949 77.8856 40.3741 77.5626 40.1325 77.3316C39.8931 77.1005 39.5285 76.985 39.0384 76.985C38.7102 76.985 38.3877 77.038 38.0709 77.1441C37.7541 77.2502 37.4862 77.3976 37.2674 77.5862L36.7307 76.557C37.0452 76.3071 37.419 76.1197 37.8521 75.9947C38.2874 75.8721 38.7376 75.8108 39.2025 75.8108C40.0504 75.8108 40.7057 76.0195 41.1684 76.4368C41.6311 76.8565 41.8624 77.5037 41.8624 78.3784V81.9222ZM38.7341 82C38.2965 82 37.9136 81.9222 37.5854 81.7666C37.2572 81.6133 37.003 81.3988 36.823 81.1229C36.6452 80.847 36.5563 80.5358 36.5563 80.1892C36.5563 79.8497 36.6349 79.5444 36.7922 79.2732C36.9495 79.0021 37.2059 78.7863 37.5615 78.626C37.9193 78.468 38.3934 78.389 38.9837 78.389H40.6795V79.3298H39.0829C38.6156 79.3298 38.3022 79.4064 38.1427 79.5597C37.9831 79.7153 37.9033 79.9063 37.9033 80.1326C37.9033 80.3896 38.0014 80.5936 38.1974 80.7445C38.3934 80.8954 38.6669 80.9708 39.0179 80.9708C39.353 80.9708 39.6538 80.8918 39.9205 80.7339C40.1872 80.5735 40.3786 80.3389 40.4949 80.0301L40.7239 80.8789C40.594 81.2349 40.3593 81.5108 40.0196 81.7065C39.68 81.9022 39.2515 82 38.7341 82ZM49.4558 81.9222H48.0336V75.2449H45.4933V74H51.9926V75.2449H49.4558V81.9222ZM60.2527 81.9222H58.9638V80.6985L58.8852 80.4368V78.3006C58.8852 77.8856 58.7655 77.5626 58.5262 77.3316C58.2846 77.1005 57.9199 76.985 57.4321 76.985C57.1039 76.985 56.7802 77.038 56.4612 77.1441C56.1443 77.2502 55.8765 77.3976 55.6577 77.5862L55.1209 76.557C55.4355 76.3071 55.8093 76.1197 56.2423 75.9947C56.6777 75.8721 57.129 75.8108 57.5962 75.8108C58.4418 75.8108 59.096 76.0195 59.5587 76.4368C60.0214 76.8565 60.2527 77.5037 60.2527 78.3784V81.9222ZM57.1244 82C56.6868 82 56.3039 81.9222 55.9757 81.7666C55.6474 81.6133 55.3945 81.3988 55.2167 81.1229C55.0366 80.847 54.9466 80.5358 54.9466 80.1892C54.9466 79.8497 55.0252 79.5444 55.1825 79.2732C55.3397 79.0021 55.5973 78.7863 55.9552 78.626C56.3107 78.468 56.7848 78.389 57.3774 78.389H59.0732V79.3298H57.4731C57.0082 79.3298 56.6948 79.4064 56.5329 79.5597C56.3734 79.7153 56.2936 79.9063 56.2936 80.1326C56.2936 80.3896 56.3916 80.5936 56.5876 80.7445C56.7859 80.8954 57.0595 80.9708 57.4082 80.9708C57.7432 80.9708 58.0441 80.8918 58.3108 80.7339C58.5774 80.5735 58.7689 80.3389 58.8852 80.0301L59.1142 80.8789C58.9843 81.2349 58.7495 81.5108 58.4099 81.7065C58.0703 81.9022 57.6418 82 57.1244 82ZM65.4494 81.9222H63.9417L66.5127 78.4562L66.4888 79.2166L64.0374 75.878H65.5588L67.2786 78.2546H66.6973L68.4273 75.878H69.9043L67.429 79.2166L67.4427 78.4562L70 81.9222H68.4581L66.6529 79.397L67.2239 79.4748L65.4494 81.9222Z" fill="black"/>
</g>
<defs>
<clipPath id="clip0_1_672">
<rect width="79" height="63" fill="white" transform="translate(1 1)"/>
</clipPath>
<clipPath id="clip1_1_672">
<rect width="59" height="8" fill="white" transform="translate(11 74)"/>
</clipPath>
</defs>
</svg>
