<svg width="80" height="80" viewBox="0 0 80 80" fill="none" xmlns="http://www.w3.org/2000/svg">
<path d="M40 0C29.3913 -1.26507e-07 19.2172 4.21427 11.7157 11.7157C4.21427 19.2172 9.27439e-07 29.3913 0 40C-9.27438e-07 50.6087 4.21427 60.7828 11.7157 68.2843C19.2172 75.7857 29.3913 80 40 80L40 40V0Z" fill="#FDF9E9"/>
<path d="M45.2456 30.4207C46.213 30.4207 47 29.6534 47 28.7104C47 27.7673 46.213 27 45.2456 27C44.2783 27 43.4913 27.7673 43.4913 28.7104C43.4913 29.0955 43.6227 29.4513 43.8439 29.7375L40.9615 33.6644C40.7895 33.6094 40.6059 33.5791 40.4152 33.5791C39.9542 33.5791 39.5345 33.7536 39.2211 34.0381L37.2998 32.9752C37.3254 32.8592 37.3391 32.739 37.3391 32.6156C37.3391 31.6725 36.5521 30.9053 35.5848 30.9053C34.6174 30.9053 33.8304 31.6725 33.8304 32.6156C33.8304 32.739 33.8442 32.8592 33.8698 32.9752L31.9485 34.0381C31.6351 33.7536 31.2153 33.5792 30.7544 33.5792C29.787 33.5792 29 34.3465 29 35.2896C29 36.2326 29.787 36.9999 30.7544 36.9999C31.7217 36.9999 32.5087 36.2326 32.5087 35.2896C32.5087 35.1662 32.495 35.0459 32.4693 34.9299L34.3906 33.8671C34.704 34.1515 35.1238 34.326 35.5848 34.326C36.0458 34.326 36.4655 34.1515 36.7789 33.8671L38.7002 34.93C38.6746 35.046 38.6609 35.1663 38.6609 35.2896C38.6609 36.2327 39.4479 37 40.4152 37C41.3826 37 42.1696 36.2327 42.1696 35.2896C42.1696 34.9044 42.0382 34.5486 41.8169 34.2624L44.6994 30.3354C44.8713 30.3904 45.0549 30.4207 45.2456 30.4207ZM45.2456 28.0262C45.6326 28.0262 45.9474 28.3331 45.9474 28.7104C45.9474 29.0876 45.6326 29.3945 45.2456 29.3945C44.8587 29.3945 44.5439 29.0876 44.5439 28.7104C44.5438 28.3331 44.8586 28.0262 45.2456 28.0262ZM30.7541 35.9736C30.3672 35.9736 30.0524 35.6667 30.0524 35.2894C30.0524 34.9121 30.3672 34.6052 30.7541 34.6052C31.1411 34.6052 31.4559 34.9121 31.4559 35.2894C31.4559 35.6667 31.1411 35.9736 30.7541 35.9736ZM35.5846 33.2997C35.1977 33.2997 34.8829 32.9928 34.8829 32.6155C34.8829 32.2383 35.1977 31.9314 35.5846 31.9314C35.9716 31.9314 36.2864 32.2383 36.2864 32.6155C36.2865 32.9928 35.9716 33.2997 35.5846 33.2997ZM40.4151 35.9736C40.0282 35.9736 39.7134 35.6667 39.7134 35.2894C39.7134 34.9121 40.0282 34.6052 40.4151 34.6052C40.8022 34.6052 41.117 34.9121 41.117 35.2894C41.117 35.6667 40.8021 35.9736 40.4151 35.9736Z" fill="#EABD23"/>
<path d="M51.4722 47.8886H47.7786H27.66H23.493C23.2518 47.8886 23.0556 47.6909 23.0556 47.4479V25.5045C23.0556 25.2615 23.2518 25.0638 23.493 25.0638H25.9811C26.2726 25.0638 26.5089 24.8257 26.5089 24.5319C26.5089 24.2381 26.2726 24 25.9811 24H23.493C22.6697 24 22 24.6749 22 25.5045V47.4479C22 48.2775 22.6697 48.9524 23.493 48.9524H27.1322V50.123C27.1322 50.7898 27.6706 51.3323 28.3323 51.3323H33.6155L31.1285 56.2255C30.9957 56.487 31.0982 56.8075 31.3577 56.9414C31.4346 56.9812 31.5168 57 31.5978 57C31.7896 57 31.9746 56.8943 32.068 56.7104L34.8015 51.3323H40.6371L43.3706 56.7104C43.464 56.8943 43.649 57 43.8407 57C43.9217 57 44.0039 56.9811 44.0809 56.9414C44.3404 56.8075 44.443 56.487 44.3101 56.2255L41.8231 51.3323H47.1063C47.768 51.3323 48.3064 50.7899 48.3064 50.123V48.9524H51.4722C51.7637 48.9524 52 48.7143 52 48.4205C52 48.1267 51.7637 47.8886 51.4722 47.8886ZM47.2508 50.123C47.2508 50.2032 47.186 50.2685 47.1063 50.2685H28.3323C28.2526 50.2685 28.1878 50.2032 28.1878 50.123V48.9524H47.2508V50.123Z" fill="#EABD23"/>
<path d="M28.5304 25.2715H35.791H40.6174H52.4998C52.7421 25.2715 52.9393 25.4594 52.9393 25.6902V30.4947C52.9393 30.7738 53.1767 31 53.4696 31C53.7625 31 54 30.7738 54 30.4947V25.6902C54 24.9021 53.327 24.2609 52.4998 24.2609H41.1479V23.2677C41.1479 22.5687 40.551 22 39.8172 22H36.5913C35.8576 22 35.2606 22.5687 35.2606 23.2677V24.2609H28.5304C28.2375 24.2609 28 24.4871 28 24.7662C28 25.0453 28.2375 25.2715 28.5304 25.2715ZM36.3213 23.2677C36.3213 23.1259 36.4424 23.0106 36.5913 23.0106H39.8172C39.966 23.0106 40.0871 23.1259 40.0871 23.2677V24.2609H36.3214V23.2677H36.3213Z" fill="#EABD23"/>
<path d="M29.4953 40C29.2218 40 29 40.2478 29 40.5537V45.4463C29 45.7522 29.2218 46 29.4953 46H31.5047C31.7782 46 32 45.7522 32 45.4463V40.5537C32 40.2478 31.7782 40 31.5047 40H29.4953ZM31.0094 44.8927H29.9906V41.1075H31.0094V44.8927Z" fill="#EABD23"/>
<path d="M34.4953 38C34.2218 38 34 38.2245 34 38.5017V45.4983C34 45.7755 34.2218 46 34.4953 46H36.5047C36.7782 46 37 45.7755 37 45.4983V38.5017C37 38.2245 36.7782 38 36.5047 38H34.4953ZM36.0095 44.9967H34.9907V39.0033H36.0095V44.9967Z" fill="#EABD23"/>
<path d="M39.4953 40C39.2218 40 39 40.2478 39 40.5537V45.4463C39 45.7522 39.2218 46 39.4953 46H41.5047C41.7782 46 42 45.7522 42 45.4463V40.5537C42 40.2478 41.7782 40 41.5047 40H39.4953ZM41.0094 44.8927H39.9906V41.1075H41.0094V44.8927Z" fill="#EABD23"/>
<path d="M43.4953 43C43.2218 43 43 43.2721 43 43.6078V45.3922C43 45.7279 43.2218 46 43.4953 46H45.5047C45.7782 46 46 45.7279 46 45.3922C46 45.0564 45.7782 44.7843 45.5047 44.7843H43.9906V43.6078C43.9906 43.2721 43.7688 43 43.4953 43Z" fill="#EABD23"/>
<path d="M57.7349 48.9707L54.7534 43.6909C55.5088 42.8677 56.0589 41.8619 56.3527 40.7409C56.8223 38.9491 56.5813 37.0776 55.6741 35.4711C53.8013 32.1546 49.6387 31.0145 46.395 32.9291C43.1513 34.8437 42.036 39.0994 43.9087 42.4158C44.8159 44.0223 46.2808 45.1714 48.0333 45.6516C48.6185 45.8119 49.2123 45.8912 49.8024 45.8912C50.3181 45.8912 50.8308 45.8305 51.3322 45.7105L54.3131 50.9905C54.6785 51.6378 55.3439 52.0001 56.0273 52C56.3622 52 56.7014 51.9129 57.0118 51.7299C57.6213 51.3702 58 50.6995 58 49.9796C58 49.6268 57.9084 49.278 57.7349 48.9707ZM48.3023 44.6251C46.8179 44.2185 45.5772 43.2451 44.8088 41.8844C43.2226 39.0756 44.1673 35.4711 46.9147 33.8493C47.8185 33.3159 48.8061 33.0625 49.7817 33.0625C51.7715 33.0625 53.7095 34.1176 54.7739 36.0024C55.5422 37.3631 55.7463 38.9482 55.3486 40.4658C54.9508 41.9835 53.9988 43.2518 52.6679 44.0374C51.3371 44.8231 49.7867 45.0316 48.3023 44.6251ZM56.4923 50.8094C56.0451 51.0734 55.4714 50.9163 55.2134 50.4593L52.3454 45.3794C52.6329 45.2595 52.9143 45.1192 53.1878 44.9578C53.4614 44.7963 53.7206 44.6165 53.9659 44.4218L56.8347 49.5019C56.9171 49.6479 56.9606 49.8131 56.9606 49.9796C56.9606 50.321 56.7811 50.639 56.4923 50.8094Z" fill="#EABD23"/>
<path d="M54.7738 40.483C55.1454 39.286 55.0569 38.0044 54.5245 36.8744C54.4006 36.6113 54.0869 36.4986 53.8239 36.6225C53.5608 36.7464 53.4481 37.06 53.5721 37.323C53.992 38.2144 54.0617 39.2257 53.7683 40.1708C53.4732 41.1211 52.8357 41.9186 51.9732 42.4165C51.0606 42.9435 49.9972 43.0833 48.9794 42.8106C47.9614 42.5379 47.1106 41.8851 46.5837 40.9725C45.4959 39.0887 46.1438 36.6712 48.0278 35.5835C49.4054 34.7884 51.1149 34.8946 52.3834 35.8542C52.6153 36.0297 52.9454 35.984 53.1208 35.7521C53.2962 35.5203 53.2505 35.1901 53.0186 35.0147C51.4118 33.799 49.2461 33.6645 47.5013 34.6717C46.3451 35.3392 45.518 36.417 45.1725 37.7064C44.8269 38.9959 45.0043 40.3427 45.6718 41.4989C46.3393 42.655 47.4172 43.482 48.7068 43.8276C49.1374 43.9429 49.5745 44 50.0086 44C50.8746 44 51.7295 43.7729 52.4996 43.3282C53.5923 42.6976 54.3999 41.6872 54.7738 40.483Z" fill="#EABD23"/>
</svg>
