<svg width="80" height="80" viewBox="0 0 80 80" fill="none" xmlns="http://www.w3.org/2000/svg">
<path d="M40 0C29.3913 -1.26507e-07 19.2172 4.21427 11.7157 11.7157C4.21427 19.2172 9.27439e-07 29.3913 0 40C-9.27438e-07 50.6087 4.21427 60.7828 11.7157 68.2843C19.2172 75.7857 29.3913 80 40 80L40 40V0Z" fill="#F6E7FD"/>
<g clip-path="url(#clip0_208_26)">
<path d="M54.9252 51.8159C54.4575 51.8159 54.0141 51.9217 53.6168 52.1099L48.7878 47.2683V41.7107C50.6581 39.6169 51.7974 36.8536 51.7974 33.8282C51.7975 27.3062 46.5052 22 40.0001 22C33.4949 22 28.2026 27.3062 28.2026 33.8282C28.2026 36.8508 29.3398 39.6116 31.207 41.7047V47.2683L26.3797 52.1082C25.9834 51.9211 25.5412 51.8159 25.075 51.8159C23.3794 51.8159 22 53.1997 22 54.9006C22 56.6015 23.3794 57.9853 25.0749 57.9853C26.7704 57.9853 28.1498 56.6015 28.1498 54.9006C28.1498 54.4394 28.0477 54.002 27.8661 53.6087L33.3163 48.1443V43.5694C34.945 44.6962 36.8685 45.4232 38.9453 45.6086V52.0208C37.7667 52.4531 36.9234 53.5882 36.9234 54.9171C36.9234 56.617 38.3036 58 40 58C41.6964 58 43.0766 56.617 43.0766 54.9171C43.0766 53.5882 42.2332 52.4531 41.0547 52.0208V45.6086C43.1293 45.4234 45.0509 44.6978 46.6784 43.5731V48.1443L52.1323 53.6123C51.9517 54.0046 51.8502 54.4409 51.8502 54.9006C51.8502 56.6014 53.2296 57.9852 54.9251 57.9852C56.6206 57.9852 58 56.6014 58 54.9006C58.0001 53.1997 56.6207 51.8159 54.9252 51.8159ZM25.0749 55.8704C24.5425 55.8704 24.1094 55.4353 24.1094 54.9006C24.1094 54.3658 24.5425 53.9308 25.0749 53.9308C25.6073 53.9308 26.0405 54.3658 26.0405 54.9006C26.0405 55.4353 25.6073 55.8704 25.0749 55.8704ZM40.0001 24.1149C45.3421 24.1149 49.6881 28.4723 49.6881 33.8282C49.6881 39.1841 45.3421 43.5415 40.0001 43.5415C34.6581 43.5415 30.312 39.1841 30.312 33.8282C30.312 28.4723 34.6581 24.1149 40.0001 24.1149ZM40.0001 55.8852C39.4667 55.8852 39.0328 55.4509 39.0328 54.9171C39.0328 54.3833 39.4667 53.9491 40.0001 53.9491C40.5334 53.9491 40.9673 54.3833 40.9673 54.9171C40.9673 55.4509 40.5334 55.8852 40.0001 55.8852ZM54.9252 55.8704C54.3928 55.8704 53.9597 55.4353 53.9597 54.9006C53.9597 54.3658 54.3928 53.9308 54.9252 53.9308C55.4576 53.9308 55.8908 54.3658 55.8908 54.9006C55.8908 55.4353 55.4576 55.8704 54.9252 55.8704Z" fill="#A40FEB"/>
<path d="M39.014 41H40.9837V39.097H41.1874C42.7383 39.097 44 37.7132 44 36.0123C44 35.2475 43.7443 34.5474 43.3226 34.0078C43.7443 33.4682 44 32.768 44 32.0033C44 30.3024 42.7383 28.9186 41.1874 28.9186H40.9837V27H39.014V28.9187H37V39.0971H39.014V41ZM38.9697 31.0789H41.1874C41.6522 31.0789 42.0303 31.4936 42.0303 32.0033C42.0303 32.5131 41.6522 32.9277 41.1874 32.9277H38.9697V31.0789ZM38.9697 35.088H41.1874C41.6522 35.088 42.0303 35.5027 42.0303 36.0124C42.0303 36.5222 41.6522 36.9369 41.1874 36.9369H38.9697V35.088Z" fill="#A40FEB"/>
</g>
<defs>
<clipPath id="clip0_208_26">
<rect width="36" height="36" fill="white" transform="translate(22 22)"/>
</clipPath>
</defs>
</svg>
