<svg width="80" height="80" viewBox="0 0 80 80" fill="none" xmlns="http://www.w3.org/2000/svg">
<path d="M40 0C29.3913 -1.26507e-07 19.2172 4.21427 11.7157 11.7157C4.21427 19.2172 9.27439e-07 29.3913 0 40C-9.27438e-07 50.6087 4.21427 60.7828 11.7157 68.2843C19.2172 75.7857 29.3913 80 40 80L40 40V0Z" fill="#EAF7F0"/>
<g clip-path="url(#clip0_208_20)">
<path d="M41.2793 53H26.7207C26.3227 53 26 53.2239 26 53.5C26 53.7761 26.3227 54 26.7207 54H41.2793C41.6773 54 42 53.7761 42 53.5C42 53.2239 41.6773 53 41.2793 53Z" fill="#27AE60"/>
<path d="M26.8534 49.1465C26.7605 49.0535 26.6315 49 26.5 49C26.3684 49 26.2394 49.0535 26.1465 49.1465C26.0535 49.2395 26 49.3685 26 49.5C26 49.6315 26.0534 49.7605 26.1465 49.8535C26.2394 49.9465 26.3684 50 26.5 50C26.6315 50 26.7605 49.9465 26.8534 49.8535C26.9464 49.7605 27 49.6315 27 49.5C27 49.3685 26.9465 49.2395 26.8534 49.1465Z" fill="#27AE60"/>
<path d="M41.2697 49H29.7303C29.327 49 29 49.2239 29 49.5C29 49.7761 29.327 50 29.7303 50H41.2697C41.673 50 42 49.7761 42 49.5C42 49.2239 41.673 49 41.2697 49Z" fill="#27AE60"/>
<path d="M41.2825 45H26.7175C26.3213 45 26 45.2239 26 45.5C26 45.7761 26.3213 46 26.7175 46H41.2825C41.6787 46 42 45.7761 42 45.5C42 45.2239 41.6787 45 41.2825 45Z" fill="#27AE60"/>
<path d="M26.8534 41.1465C26.7605 41.0535 26.6315 41 26.5 41C26.3684 41 26.2394 41.0535 26.1465 41.1465C26.0535 41.2395 26 41.3685 26 41.5C26 41.6315 26.0534 41.7605 26.1465 41.8535C26.2394 41.9465 26.3684 42 26.5 42C26.6315 42 26.7605 41.9465 26.8534 41.8535C26.9464 41.7605 27 41.632 27 41.5C27 41.3685 26.9465 41.2395 26.8534 41.1465Z" fill="#27AE60"/>
<path d="M41.2697 41H29.7303C29.327 41 29 41.2239 29 41.5C29 41.7761 29.327 42 29.7303 42H41.2697C41.673 42 42 41.7761 42 41.5C42 41.2239 41.673 41 41.2697 41Z" fill="#27AE60"/>
<path d="M30.3192 30H26.6807C26.3048 30 26 30.2991 26 30.668C26 31.0369 26.3048 31.3359 26.6807 31.3359H27.8193V36.332C27.8193 36.7009 28.1241 37 28.5 37C28.8759 37 29.1807 36.7009 29.1807 36.332V31.3359H30.3193C30.6952 31.3359 31 31.0369 31 30.668C31 30.2991 30.6952 30 30.3192 30Z" fill="#27AE60"/>
<path d="M36.9476 36.0651L34.6036 30.4093C34.5008 30.1612 34.2631 30 34 30C33.7369 30 33.4993 30.1612 33.3964 30.4093L31.0524 36.0651C30.9108 36.4067 31.0663 36.8013 31.3996 36.9463C31.4832 36.9827 31.5702 36.9999 31.6556 36.9999C31.9109 36.9999 32.1535 36.8463 32.2595 36.5905L32.6788 35.5791H35.3213L35.7405 36.5905C35.882 36.9321 36.267 37.0915 36.6004 36.9463C36.9337 36.8012 37.0892 36.4067 36.9476 36.0651ZM33.2358 34.235L34 32.3912L34.7642 34.235H33.2358Z" fill="#27AE60"/>
<path d="M41.3021 33.5L42.8946 31.0252C43.0949 30.7139 43.0012 30.3014 42.6853 30.1039C42.3693 29.9064 41.9508 29.9988 41.7505 30.3101L40.5 32.2535L39.2495 30.3101C39.0491 29.9988 38.6307 29.9065 38.3147 30.1039C37.9988 30.3014 37.9051 30.7139 38.1054 31.0252L39.6979 33.5L38.1054 35.9748C37.9051 36.2861 37.9988 36.6986 38.3147 36.8961C38.4272 36.9664 38.5528 37 38.6768 37C38.9011 37 39.1205 36.8903 39.2495 36.6898L40.5 34.7465L41.7505 36.6898C41.8796 36.8903 42.0989 37 42.3232 37C42.4472 37 42.5728 36.9664 42.6853 36.8961C43.0012 36.6986 43.0949 36.2861 42.8946 35.9748L41.3021 33.5Z" fill="#27AE60"/>
<path d="M56.1016 38.0269H44.9922C43.9454 38.0269 43.0938 38.8785 43.0938 39.9253V56.1016C43.0938 56.2718 43.1166 56.4367 43.1589 56.5938H24.1094C23.7217 56.5938 23.4062 56.2783 23.4062 55.8906V24.1094C23.4062 23.7217 23.7217 23.4062 24.1094 23.4062H44.0078V27.686C44.0078 28.8591 44.9622 29.8136 46.1355 29.8136H50.4062V35.6035C50.4062 35.9918 50.7211 36.3066 51.1094 36.3066C51.4976 36.3066 51.8125 35.9918 51.8125 35.6035V29.1105C51.8119 29.1106 51.8114 29.1106 51.8108 29.1106C51.8108 28.9277 51.741 28.7478 51.6066 28.6133L45.2081 22.2149C45.073 22.0797 44.892 22.0101 44.7081 22.0108C44.7092 22.007 44.7098 22.0038 44.7109 22H24.1094C22.9463 22 22 22.9463 22 24.1094V55.8906C22 57.0537 22.9463 58 24.1094 58H56.1016C57.1484 58 58 57.1484 58 56.1016V39.9253C58 38.8785 57.1484 38.0269 56.1016 38.0269ZM45.4141 24.4095L49.4118 28.4074H46.1355C45.7377 28.4074 45.4141 28.0837 45.4141 27.686V24.4095ZM56.5938 56.1016C56.5938 56.373 56.3729 56.5938 56.1016 56.5938H44.9922C44.7209 56.5938 44.5 56.373 44.5 56.1016V39.9253C44.5 39.6539 44.7209 39.4331 44.9922 39.4331H56.1016C56.3729 39.4331 56.5938 39.6539 56.5938 39.9253V56.1016Z" fill="#27AE60"/>
<path d="M54.3182 41H46.6818C46.3053 41 46 41.2985 46 41.6667V44.3333C46 44.7015 46.3053 45 46.6818 45H54.3182C54.6947 45 55 44.7015 55 44.3333V41.6667C55 41.2985 54.6947 41 54.3182 41ZM53.6364 43.6667H47.3636V42.3333H53.6364V43.6667Z" fill="#27AE60"/>
<path d="M47.375 47H46.625C46.2799 47 46 47.2239 46 47.5C46 47.7761 46.2799 48 46.625 48H47.375C47.7201 48 48 47.7761 48 47.5C48 47.2239 47.7201 47 47.375 47Z" fill="#27AE60"/>
<path d="M50.375 47H49.625C49.2799 47 49 47.2239 49 47.5C49 47.7761 49.2799 48 49.625 48H50.375C50.7201 48 51 47.7761 51 47.5C51 47.2239 50.7201 47 50.375 47Z" fill="#27AE60"/>
<path d="M54.375 47H53.625C53.2799 47 53 47.2239 53 47.5C53 47.7761 53.2799 48 53.625 48H54.375C54.7201 48 55 47.7761 55 47.5C55 47.2239 54.7201 47 54.375 47Z" fill="#27AE60"/>
<path d="M47.375 50H46.625C46.2799 50 46 50.2239 46 50.5C46 50.7761 46.2799 51 46.625 51H47.375C47.7201 51 48 50.7761 48 50.5C48 50.2239 47.7201 50 47.375 50Z" fill="#27AE60"/>
<path d="M50.375 50H49.625C49.2799 50 49 50.2239 49 50.5C49 50.7761 49.2799 51 49.625 51H50.375C50.7201 51 51 50.7761 51 50.5C51 50.2239 50.7201 50 50.375 50Z" fill="#27AE60"/>
<path d="M54.375 50H53.625C53.2799 50 53 50.2239 53 50.5C53 50.7761 53.2799 51 53.625 51H54.375C54.7201 51 55 50.7761 55 50.5C55 50.2239 54.7201 50 54.375 50Z" fill="#27AE60"/>
<path d="M47.375 54H46.625C46.2799 54 46 54.2239 46 54.5C46 54.7761 46.2799 55 46.625 55H47.375C47.7201 55 48 54.7761 48 54.5C48 54.2239 47.7201 54 47.375 54Z" fill="#27AE60"/>
<path d="M50.375 54H49.625C49.2799 54 49 54.2239 49 54.5C49 54.7761 49.2799 55 49.625 55H50.375C50.7201 55 51 54.7761 51 54.5C51 54.2239 50.7201 54 50.375 54Z" fill="#27AE60"/>
<path d="M54.375 54H53.625C53.2799 54 53 54.2239 53 54.5C53 54.7761 53.2799 55 53.625 55H54.375C54.7201 55 55 54.7761 55 54.5C55 54.2239 54.7201 54 54.375 54Z" fill="#27AE60"/>
</g>
<defs>
<clipPath id="clip0_208_20">
<rect width="36" height="36" fill="white" transform="translate(22 22)"/>
</clipPath>
</defs>
</svg>
