<svg width="80" height="80" viewBox="0 0 80 80" fill="none" xmlns="http://www.w3.org/2000/svg">
<path d="M40 0C29.3913 -1.26507e-07 19.2172 4.21427 11.7157 11.7157C4.21427 19.2172 9.27439e-07 29.3913 0 40C-9.27438e-07 50.6087 4.21427 60.7828 11.7157 68.2843C19.2172 75.7857 29.3913 80 40 80L40 40V0Z" fill="#EFF0FE"/>
<g clip-path="url(#clip0_208_23)">
<path d="M56.9988 38.2335C56.2253 37.8077 55.0467 37.8935 54.2875 39.0883C54.2852 39.0919 54.283 39.0955 54.2807 39.0992L51.4588 43.7238C51.1188 43.5277 50.7293 43.4405 50.3325 43.4761C49.8354 43.5207 49.3881 43.7543 49.073 44.1339C48.8717 44.3766 48.2067 45.2084 47.5026 46.0891C46.833 46.9267 46.1408 47.7927 45.9475 48.0256C45.2778 48.8327 44.4236 49.4534 43.5192 50.1105C42.236 51.0428 40.8328 52.0624 40.0001 53.7255C39.1675 52.0624 37.7642 51.0428 36.481 50.1105C35.5767 49.4534 34.7224 48.8327 34.0527 48.0255C33.8594 47.7927 33.1671 46.9266 32.4976 46.0891C31.7936 45.2084 31.1286 44.3766 30.9271 44.1339C30.6121 43.7542 30.1649 43.5206 29.6677 43.4761C29.271 43.4405 28.8813 43.5277 28.5414 43.7239L25.7194 39.0992C25.7172 39.0956 25.7149 39.092 25.7126 39.0884C24.9536 37.8936 23.7751 37.8077 23.0013 38.2336C22.0846 38.7382 21.7425 39.8642 22.2056 40.8528C22.2067 40.855 22.2077 40.8573 22.2088 40.8594C22.4065 41.2702 22.8875 42.4194 23.4444 43.7501C24.2239 45.6122 25.1939 47.9297 26.0159 49.7403C27.0868 52.099 27.5671 52.7618 29.442 54.4684L31.9715 56.7707V57.2957C31.9715 57.6847 32.2864 58 32.6748 58C33.0633 58 33.3781 57.6847 33.3781 57.2957V56.4591C33.3781 56.2606 33.2945 56.0715 33.1479 55.9379L30.3881 53.4261C28.6608 51.8539 28.2851 51.3353 27.2964 49.1573C26.4831 47.3659 25.5176 45.0592 24.7417 43.2056C24.1556 41.8054 23.6923 40.6985 23.4778 40.252C23.281 39.8287 23.5114 39.56 23.6788 39.4678C23.9595 39.3133 24.2748 39.4522 24.5227 39.8395L27.6595 44.9802C27.6019 45.3571 27.6492 45.8254 27.8778 46.4039C28.5342 48.0649 29.3479 49.7242 30.1102 50.9561C30.3148 51.2867 30.7484 51.3885 31.0786 51.1837C31.4088 50.9789 31.5105 50.5448 31.3059 50.2141C30.5856 49.0501 29.8128 47.4723 29.1857 45.8856C28.9177 45.2073 29.0958 45.0574 29.1627 45.001C29.2709 44.91 29.4057 44.8669 29.5422 44.8789C29.6636 44.8898 29.7712 44.9448 29.8451 45.0339C30.0383 45.2667 30.7301 46.1322 31.3993 46.9692C32.1038 47.8504 32.7692 48.6829 32.9706 48.9255C33.7532 49.8688 34.7199 50.5711 35.6548 51.2504C37.4666 52.5668 39.0323 53.7045 39.2966 56.3467V57.2955C39.2966 57.6845 39.6115 57.9998 39.9999 57.9998C40.3884 57.9998 40.7032 57.6845 40.7032 57.2955V56.3467C40.9675 53.7045 42.5333 52.5668 44.3451 51.2504C45.28 50.5711 46.2467 49.8688 47.0293 48.9256C47.2307 48.6829 47.8961 47.8504 48.6006 46.9692C49.2698 46.1322 49.9616 45.2667 50.1548 45.0339C50.2287 44.9448 50.3363 44.8898 50.4577 44.8788C50.5945 44.8667 50.7291 44.91 50.8372 45.001C50.9042 45.0574 51.0822 45.2072 50.8142 45.8855C50.187 47.4725 49.4142 49.0501 48.694 50.2141C48.4894 50.5446 48.5912 50.9787 48.9213 51.1837C49.2514 51.3884 49.685 51.2866 49.8897 50.956C50.6519 49.7242 51.4656 48.0649 52.1221 46.4038C52.3507 45.8252 52.398 45.357 52.3404 44.98L55.4772 39.8394C55.7251 39.4521 56.0402 39.313 56.3211 39.4677C56.4885 39.5598 56.7187 39.8285 56.5221 40.2515C56.3078 40.6977 55.8444 41.8048 55.2581 43.2054C54.4823 45.0589 53.5167 47.3657 52.7034 49.1571C51.7146 51.335 51.3391 51.8536 49.6117 53.4258L46.852 55.9377C46.7053 56.0712 46.6217 56.2604 46.6217 56.4588V57.2955C46.6217 57.6844 46.9366 57.9997 47.325 57.9997C47.7135 57.9997 48.0283 57.6844 48.0283 57.2955V56.7704L50.5578 54.4681C52.4329 52.7615 52.9131 52.0987 53.9839 49.74C54.8059 47.9295 55.7759 45.612 56.5554 43.7498C57.1124 42.4192 57.5934 41.27 57.7911 40.8592C57.7921 40.857 57.7932 40.8548 57.7942 40.8525C58.2576 39.8641 57.9155 38.738 56.9988 38.2335Z" fill="#5865F2"/>
<path d="M30.3574 38.7516L39.6426 43.9079C39.7532 43.9693 39.8765 44 40 44C40.1234 44 40.2468 43.9693 40.3574 43.9079L49.6426 38.7516C49.8638 38.6288 50 38.4019 50 38.1562V27.8437C50 27.598 49.8638 27.3711 49.6426 27.2483L40.3574 22.0921C40.1362 21.9693 39.8637 21.9693 39.6426 22.0921L30.3574 27.2484C30.1362 27.3712 30 27.5981 30 27.8437V38.1563C30 38.4019 30.1362 38.6288 30.3574 38.7516ZM31.4296 29.0345L39.2852 33.3969V42.1217L31.4296 37.7593V29.0345ZM40.7147 23.8782L47.8557 27.8437L40.7147 31.8092V23.8782ZM39.2852 31.8092L32.1443 27.8437L39.2852 23.8782V31.8092ZM40.7147 42.1217V33.3969L48.5704 29.0345V37.7593L40.7147 42.1217Z" fill="#5865F2"/>
</g>
<defs>
<clipPath id="clip0_208_23">
<rect width="36" height="36" fill="white" transform="translate(22 22)"/>
</clipPath>
</defs>
</svg>
