<svg width="48" height="48" viewBox="0 0 48 48" fill="none" xmlns="http://www.w3.org/2000/svg">
<rect width="48" height="48" rx="8" fill="#5865F2"/>
<path d="M36 17.3334H18.6667C18.3131 17.3334 17.9739 17.1929 17.7239 16.9429C17.4738 16.6928 17.3334 16.3537 17.3334 16.0001C17.3334 15.6465 17.4738 15.3073 17.7239 15.0573C17.9739 14.8072 18.3131 14.6667 18.6667 14.6667H36C36.3536 14.6667 36.6928 14.8072 36.9428 15.0573C37.1929 15.3073 37.3334 15.6465 37.3334 16.0001C37.3334 16.3537 37.1929 16.6928 36.9428 16.9429C36.6928 17.1929 36.3536 17.3334 36 17.3334ZM37.3334 24.0001C37.3334 23.6465 37.1929 23.3073 36.9428 23.0573C36.6928 22.8072 36.3536 22.6667 36 22.6667H12C11.6464 22.6667 11.3073 22.8072 11.0572 23.0573C10.8072 23.3073 10.6667 23.6465 10.6667 24.0001C10.6667 24.3537 10.8072 24.6928 11.0572 24.9429C11.3073 25.1929 11.6464 25.3334 12 25.3334H36C36.3536 25.3334 36.6928 25.1929 36.9428 24.9429C37.1929 24.6928 37.3334 24.3537 37.3334 24.0001ZM37.3334 32.0001C37.3334 31.6465 37.1929 31.3073 36.9428 31.0573C36.6928 30.8072 36.3536 30.6667 36 30.6667H24C23.6464 30.6667 23.3073 30.8072 23.0572 31.0573C22.8072 31.3073 22.6667 31.6465 22.6667 32.0001C22.6667 32.3537 22.8072 32.6928 23.0572 32.9429C23.3073 33.1929 23.6464 33.3334 24 33.3334H36C36.3536 33.3334 36.6928 33.1929 36.9428 32.9429C37.1929 32.6928 37.3334 32.3537 37.3334 32.0001Z" fill="white"/>
</svg>
