<svg id="Layer_1" data-name="Layer 1" xmlns="http://www.w3.org/2000/svg" xmlns:xlink="http://www.w3.org/1999/xlink" viewBox="0 0 849 604"><defs><style>.cls-1,.cls-7,.cls-76{fill:none;}.cls-2{fill:#fff;}.cls-3{fill:url(#linear-gradient);}.cls-4{fill:url(#linear-gradient-2);}.cls-5{fill:#ffd03e;}.cls-6{fill:#ffad02;}.cls-7{stroke:#ffad02;stroke-width:2px;}.cls-7,.cls-76{stroke-linecap:round;stroke-linejoin:round;}.cls-8{fill:url(#linear-gradient-3);}.cls-9{fill:#efeff3;}.cls-10{fill:url(#linear-gradient-4);}.cls-11{fill:#dae0f5;}.cls-12{fill:url(#linear-gradient-5);}.cls-13{fill:#bbc0e6;}.cls-14{fill:url(#linear-gradient-6);}.cls-15{fill:url(#linear-gradient-7);}.cls-16{fill:url(#linear-gradient-8);}.cls-17{fill:#ced3f8;}.cls-18{fill:#a3a9d0;}.cls-19{fill:url(#linear-gradient-9);}.cls-20{fill:#dfe4f4;}.cls-21{fill:url(#linear-gradient-10);}.cls-22{fill:#dd3b10;}.cls-23{fill:#fc780b;}.cls-24{fill:url(#linear-gradient-11);}.cls-25{fill:url(#linear-gradient-12);}.cls-26{fill:#b9bee4;}.cls-27{fill:#ccd1f6;}.cls-28{fill:#5652cc;}.cls-29{fill:#807cfb;}.cls-30{fill:#f4f4f9;}.cls-31{fill:#f6f6fb;}.cls-32{fill:url(#linear-gradient-13);}.cls-33{fill:#c3b6bc;}.cls-34{fill:#c4c9e4;}.cls-35{fill:#1f196f;}.cls-36{fill:url(#linear-gradient-14);}.cls-37{fill:url(#radial-gradient);}.cls-38{fill:url(#linear-gradient-15);}.cls-39{fill:url(#linear-gradient-16);}.cls-40{fill:url(#linear-gradient-17);}.cls-41{fill:url(#linear-gradient-18);}.cls-42{fill:#fbba05;}.cls-43{fill:#ef4e16;}.cls-44{fill:url(#linear-gradient-19);}.cls-45{fill:#423eaf;}.cls-46{fill:url(#linear-gradient-20);}.cls-47{fill:url(#linear-gradient-21);}.cls-48{fill:url(#linear-gradient-22);}.cls-49{fill:url(#linear-gradient-23);}.cls-50{fill:url(#linear-gradient-24);}.cls-51{fill:#362e93;}.cls-52{fill:url(#linear-gradient-25);}.cls-53{fill:url(#linear-gradient-26);}.cls-54{fill:#e7ebff;}.cls-55{fill:#d7ddfa;}.cls-56{fill:url(#linear-gradient-27);}.cls-57{fill:url(#linear-gradient-28);}.cls-58{fill:url(#linear-gradient-29);}.cls-59{fill:url(#linear-gradient-30);}.cls-60{fill:#1966a7;}.cls-61{fill:#f1f1f6;}.cls-62{fill:url(#linear-gradient-31);}.cls-63{fill:url(#linear-gradient-32);}.cls-64{fill:url(#linear-gradient-33);}.cls-65{fill:url(#linear-gradient-34);}.cls-66{fill:url(#linear-gradient-35);}.cls-67{fill:url(#linear-gradient-36);}.cls-68{fill:url(#linear-gradient-38);}.cls-69{fill:url(#linear-gradient-39);}.cls-70{fill:url(#linear-gradient-40);}.cls-71{fill:url(#linear-gradient-41);}.cls-72{fill:#6b67e9;}.cls-73{fill:url(#linear-gradient-42);}.cls-74{fill:url(#linear-gradient-43);}.cls-75{fill:url(#linear-gradient-44);}.cls-76{stroke:#5652cc;}.cls-77{fill:url(#linear-gradient-45);}.cls-78{fill:url(#linear-gradient-46);}.cls-79{fill:#5555c4;}.cls-80{fill:url(#linear-gradient-47);}.cls-81{fill:url(#linear-gradient-48);}.cls-82{fill:#fcd1a9;}.cls-83{fill:url(#linear-gradient-49);}.cls-84{clip-path:url(#clip-path);}.cls-85{fill:#eabd23;}.cls-86{clip-path:url(#clip-path-2);}.cls-87{fill:#00cb08;}</style><linearGradient id="linear-gradient" x1="618.88" y1="282.97" x2="650.88" y2="282.97" gradientTransform="matrix(1, 0, 0, -1, 0, 604)" gradientUnits="userSpaceOnUse"><stop offset="0.43" stop-color="#d1d7f3"/><stop offset="0.49" stop-color="#d7dcf5"/><stop offset="0.81" stop-color="#f4f6fc"/><stop offset="1" stop-color="#fff"/></linearGradient><linearGradient id="linear-gradient-2" x1="612.88" y1="283.47" x2="640.88" y2="283.47" gradientTransform="matrix(1, 0, 0, -1, 0, 604)" gradientUnits="userSpaceOnUse"><stop offset="0" stop-color="#fc780b"/><stop offset="0.14" stop-color="#fa700d"/><stop offset="0.68" stop-color="#f25714"/><stop offset="1" stop-color="#ef4e16"/></linearGradient><linearGradient id="linear-gradient-3" x1="567.88" y1="356.97" x2="666.88" y2="356.97" gradientTransform="matrix(1, 0, 0, -1, 0, 604)" gradientUnits="userSpaceOnUse"><stop offset="0" stop-color="#c4cae8"/><stop offset="1" stop-color="#fff"/></linearGradient><linearGradient id="linear-gradient-4" x1="374.88" y1="104.97" x2="469.88" y2="104.97" gradientTransform="matrix(1, 0, 0, -1, 0, 604)" gradientUnits="userSpaceOnUse"><stop offset="0.4" stop-color="#ced3f8"/><stop offset="0.55" stop-color="#bec3e9"/><stop offset="0.57" stop-color="#bbc0e6"/></linearGradient><linearGradient id="linear-gradient-5" x1="381.88" y1="123.47" x2="408.88" y2="123.47" gradientTransform="matrix(1, 0, 0, -1, 0, 604)" gradientUnits="userSpaceOnUse"><stop offset="0" stop-color="#c4cae8"/><stop offset="0.54" stop-color="#e6e9f5"/><stop offset="1" stop-color="#fff"/></linearGradient><linearGradient id="linear-gradient-6" x1="574.79" y1="341.25" x2="610.1" y2="402.66" gradientTransform="matrix(1, 0, 0, -1, 0, 604)" gradientUnits="userSpaceOnUse"><stop offset="0.38" stop-color="#6b67e9"/><stop offset="0.59" stop-color="#423eaf"/></linearGradient><linearGradient id="linear-gradient-7" x1="534.66" y1="351.75" x2="579.7" y2="429.69" gradientTransform="matrix(1, 0, 0, -1, 0, 604)" gradientUnits="userSpaceOnUse"><stop offset="0.41" stop-color="#ced3f8"/><stop offset="0.62" stop-color="#f6f6fb"/></linearGradient><linearGradient id="linear-gradient-8" x1="552.81" y1="430.2" x2="587.44" y2="369.76" gradientTransform="matrix(1, 0, 0, -1, 0, 604)" gradientUnits="userSpaceOnUse"><stop offset="0" stop-color="#ced3f8"/><stop offset="0.29" stop-color="#e0e3fb"/><stop offset="0.72" stop-color="#f7f8fe"/><stop offset="1" stop-color="#fff"/></linearGradient><linearGradient id="linear-gradient-9" x1="82.38" y1="254.97" x2="82.38" y2="291.97" gradientTransform="matrix(1, 0, 0, -1, 0, 604)" gradientUnits="userSpaceOnUse"><stop offset="0" stop-color="#5652cc"/><stop offset="1" stop-color="#807cfb"/></linearGradient><linearGradient id="linear-gradient-10" x1="82.88" y1="271.47" x2="101.88" y2="271.47" xlink:href="#linear-gradient-3"/><linearGradient id="linear-gradient-11" x1="576.1" y1="401.75" x2="531.07" y2="479.69" gradientTransform="matrix(1, 0, 0, -1, 0, 604)" gradientUnits="userSpaceOnUse"><stop offset="0.41" stop-color="#b0b7dd"/><stop offset="0.62" stop-color="#f6f6fb"/></linearGradient><linearGradient id="linear-gradient-12" x1="525.88" y1="52.47" x2="572.88" y2="52.47" gradientTransform="matrix(1, 0, 0, -1, 0, 604)" gradientUnits="userSpaceOnUse"><stop offset="0" stop-color="#cfd5f1"/><stop offset="0.28" stop-color="#e1e5f6"/><stop offset="0.72" stop-color="#f7f8fd"/><stop offset="1" stop-color="#fff"/></linearGradient><linearGradient id="linear-gradient-13" x1="313.88" y1="258.97" x2="462.88" y2="258.97" gradientTransform="matrix(1, 0, 0, -1, 0, 604)" gradientUnits="userSpaceOnUse"><stop offset="0.24" stop-color="#6b67e9"/><stop offset="0.3" stop-color="#6a65e7"/><stop offset="0.33" stop-color="#6560df"/><stop offset="0.35" stop-color="#5c57d1"/><stop offset="0.37" stop-color="#514bbe"/><stop offset="0.39" stop-color="#423aa6"/><stop offset="0.4" stop-color="#362e93"/></linearGradient><linearGradient id="linear-gradient-14" x1="258.54" y1="255.8" x2="444.71" y2="577.78" gradientTransform="matrix(1, 0, 0, -1, 0, 604)" gradientUnits="userSpaceOnUse"><stop offset="0.4" stop-color="#362e93"/><stop offset="0.46" stop-color="#6b67e9"/></linearGradient><radialGradient id="radial-gradient" cx="414.13" cy="317.3" r="1" gradientTransform="matrix(60.5, -34.88, -30.18, -52.35, -15080.53, 31257.76)" gradientUnits="userSpaceOnUse"><stop offset="0.45" stop-color="#ffe950"/><stop offset="1" stop-color="#fff"/></radialGradient><linearGradient id="linear-gradient-15" x1="394.85" y1="363.97" x2="428.83" y2="422.82" gradientTransform="matrix(1, 0, 0, -1, 0, 604)" gradientUnits="userSpaceOnUse"><stop offset="0" stop-color="#fc780b"/><stop offset="1" stop-color="#ef4e16"/></linearGradient><linearGradient id="linear-gradient-16" x1="366.55" y1="368.48" x2="410.42" y2="444.77" gradientTransform="matrix(1, 0, 0, -1, 0, 604)" gradientUnits="userSpaceOnUse"><stop offset="0" stop-color="#dd3b10"/><stop offset="0.3" stop-color="#e5510e"/><stop offset="0.91" stop-color="#fa880a"/><stop offset="1" stop-color="#fd9009"/></linearGradient><linearGradient id="linear-gradient-17" x1="400.57" y1="398.99" x2="408.6" y2="412.87" xlink:href="#linear-gradient-15"/><linearGradient id="linear-gradient-18" x1="400.11" y1="379.21" x2="411.98" y2="398.42" xlink:href="#linear-gradient-15"/><linearGradient id="linear-gradient-19" x1="573.88" y1="96.47" x2="669.88" y2="96.47" gradientTransform="matrix(1, 0, 0, -1, 0, 604)" gradientUnits="userSpaceOnUse"><stop offset="0" stop-color="#c4c9e5"/><stop offset="0.3" stop-color="#d2d6eb"/><stop offset="0.87" stop-color="#f6f6fb"/><stop offset="1" stop-color="#fff"/></linearGradient><linearGradient id="linear-gradient-20" x1="126.88" y1="137.97" x2="218.88" y2="137.97" gradientTransform="matrix(1, 0, 0, -1, 0, 604)" gradientUnits="userSpaceOnUse"><stop offset="0" stop-color="#fff"/><stop offset="0.51" stop-color="#d4d9f4"/><stop offset="0.59" stop-color="#dde1f6"/><stop offset="0.84" stop-color="#f6f7fd"/><stop offset="1" stop-color="#fff"/></linearGradient><linearGradient id="linear-gradient-21" x1="118.88" y1="154.47" x2="154.88" y2="154.47" gradientTransform="matrix(1, 0, 0, -1, 0, 604)" gradientUnits="userSpaceOnUse"><stop offset="0" stop-color="#bbc0e6"/><stop offset="1" stop-color="#ced3f8"/></linearGradient><linearGradient id="linear-gradient-22" x1="112.88" y1="147.47" x2="161.88" y2="147.47" gradientTransform="matrix(1, 0, 0, -1, 0, 604)" gradientUnits="userSpaceOnUse"><stop offset="0" stop-color="#ced3f8"/><stop offset="0.77" stop-color="#bbc0e6"/></linearGradient><linearGradient id="linear-gradient-23" x1="159.89" y1="159.21" x2="183.84" y2="117.07" gradientTransform="matrix(1, 0, 0, -1, 0, 604)" gradientUnits="userSpaceOnUse"><stop offset="0.49" stop-color="#ffad02"/><stop offset="1" stop-color="#dd3b10"/></linearGradient><linearGradient id="linear-gradient-24" x1="153.17" y1="183.5" x2="236.6" y2="328.26" gradientTransform="matrix(1, 0, 0, -1, 0, 604)" gradientUnits="userSpaceOnUse"><stop offset="0.6" stop-color="#ced3f8"/><stop offset="0.69" stop-color="#efeff3"/></linearGradient><linearGradient id="linear-gradient-25" x1="264.49" y1="215.48" x2="269.4" y2="211.36" gradientTransform="matrix(1, 0, 0, -1, 0, 604)" gradientUnits="userSpaceOnUse"><stop offset="0" stop-color="#807cfb"/><stop offset="1" stop-color="#362e93"/></linearGradient><linearGradient id="linear-gradient-26" x1="207.38" y1="174.97" x2="207.38" y2="254.97" gradientTransform="matrix(1, 0, 0, -1, 0, 604)" gradientUnits="userSpaceOnUse"><stop offset="0" stop-color="#f1f1f6"/><stop offset="1" stop-color="#fff"/></linearGradient><linearGradient id="linear-gradient-27" x1="577.88" y1="279.97" x2="599.88" y2="279.97" gradientTransform="matrix(1, 0, 0, -1, 0, 604)" gradientUnits="userSpaceOnUse"><stop offset="0" stop-color="#c4cae8"/><stop offset="0.29" stop-color="#d9ddf0"/><stop offset="0.74" stop-color="#f5f6fb"/><stop offset="1" stop-color="#fff"/></linearGradient><linearGradient id="linear-gradient-28" x1="593.88" y1="283.97" x2="541.88" y2="283.97" gradientTransform="matrix(1, 0, 0, -1, 0, 604)" gradientUnits="userSpaceOnUse"><stop offset="0.26" stop-color="#423eaf"/><stop offset="0.34" stop-color="#4d49bf"/><stop offset="0.49" stop-color="#6a66e8"/><stop offset="0.49" stop-color="#6b67e9"/></linearGradient><linearGradient id="linear-gradient-29" x1="408.88" y1="211.47" x2="523.88" y2="211.47" xlink:href="#linear-gradient-3"/><linearGradient id="linear-gradient-30" x1="366.88" y1="209.97" x2="517.88" y2="209.97" gradientTransform="matrix(1, 0, 0, -1, 0, 604)" gradientUnits="userSpaceOnUse"><stop offset="0.26" stop-color="#6b67e9"/><stop offset="0.29" stop-color="#605cd9"/><stop offset="0.34" stop-color="#433fb0"/><stop offset="0.34" stop-color="#423eaf"/></linearGradient><linearGradient id="linear-gradient-31" x1="622.88" y1="340.97" x2="675.88" y2="340.97" xlink:href="#linear-gradient-12"/><linearGradient id="linear-gradient-32" x1="327.97" y1="100.32" x2="340.26" y2="79.01" gradientTransform="matrix(1, 0, 0, -1, 0, 604)" gradientUnits="userSpaceOnUse"><stop offset="0.38" stop-color="#f6f6fb"/><stop offset="0.59" stop-color="#bbc0e6"/></linearGradient><linearGradient id="linear-gradient-33" x1="327.97" y1="121.32" x2="340.26" y2="100.01" xlink:href="#linear-gradient-32"/><linearGradient id="linear-gradient-34" x1="344.97" y1="90.32" x2="357.26" y2="69.01" xlink:href="#linear-gradient-32"/><linearGradient id="linear-gradient-35" x1="362.97" y1="80.31" x2="375.26" y2="59.01" xlink:href="#linear-gradient-32"/><linearGradient id="linear-gradient-36" x1="344.96" y1="110.32" x2="357.26" y2="89" xlink:href="#linear-gradient-32"/><linearGradient id="linear-gradient-38" x1="362.97" y1="100.32" x2="375.26" y2="79.01" xlink:href="#linear-gradient-32"/><linearGradient id="linear-gradient-39" x1="327.97" y1="141.32" x2="340.26" y2="120.01" xlink:href="#linear-gradient-32"/><linearGradient id="linear-gradient-40" x1="344.97" y1="131.32" x2="357.26" y2="110.01" xlink:href="#linear-gradient-32"/><linearGradient id="linear-gradient-41" x1="362.97" y1="121.32" x2="375.26" y2="100.01" xlink:href="#linear-gradient-32"/><linearGradient id="linear-gradient-42" x1="265.65" y1="442.39" x2="233.46" y2="460" gradientTransform="matrix(1, 0, 0, -1, 0, 604)" gradientUnits="userSpaceOnUse"><stop offset="0" stop-color="#423eaf"/><stop offset="1" stop-color="#5652cc"/></linearGradient><linearGradient id="linear-gradient-43" x1="227.38" y1="470.97" x2="227.38" y2="507.97" xlink:href="#linear-gradient-9"/><linearGradient id="linear-gradient-44" x1="380.88" y1="138.47" x2="422.88" y2="138.47" xlink:href="#linear-gradient-12"/><linearGradient id="linear-gradient-45" x1="421.88" y1="17.97" x2="453.88" y2="17.97" xlink:href="#linear-gradient"/><linearGradient id="linear-gradient-46" x1="414.88" y1="18.47" x2="442.88" y2="18.47" gradientTransform="matrix(1, 0, 0, -1, 0, 604)" gradientUnits="userSpaceOnUse"><stop offset="0" stop-color="#fd9009"/><stop offset="0.39" stop-color="#f6700f"/><stop offset="0.77" stop-color="#f15714"/><stop offset="1" stop-color="#ef4e16"/></linearGradient><linearGradient id="linear-gradient-47" x1="481.88" y1="156.97" x2="585.88" y2="156.97" gradientTransform="matrix(1, 0, 0, -1, 0, 604)" gradientUnits="userSpaceOnUse"><stop offset="0" stop-color="#807cfb"/><stop offset="0.14" stop-color="#7b77f5"/><stop offset="0.33" stop-color="#6d69e4"/><stop offset="0.55" stop-color="#5753c8"/><stop offset="0.71" stop-color="#423eaf"/></linearGradient><linearGradient id="linear-gradient-48" x1="532.88" y1="191.97" x2="586.88" y2="191.97" gradientTransform="matrix(1, 0, 0, -1, 0, 604)" gradientUnits="userSpaceOnUse"><stop offset="0" stop-color="#fd9009"/><stop offset="0.09" stop-color="#fc890a"/><stop offset="0.69" stop-color="#f25e13"/><stop offset="1" stop-color="#ef4e16"/></linearGradient><linearGradient id="linear-gradient-49" x1="520.88" y1="193.97" x2="556.88" y2="193.97" gradientTransform="matrix(1, 0, 0, -1, 0, 604)" gradientUnits="userSpaceOnUse"><stop offset="0" stop-color="#fd9009"/><stop offset="0.64" stop-color="#f46711"/><stop offset="1" stop-color="#ef4e16"/></linearGradient><clipPath id="clip-path"><rect class="cls-1" x="536.88" y="87.03" width="24" height="24"/></clipPath><clipPath id="clip-path-2"><rect class="cls-1" x="579.88" y="238.03" width="24" height="24"/></clipPath></defs><title>Group_1413372412</title><path class="cls-2" d="M717.27,243.91a9.06,9.06,0,0,0-7.78,0c-2.14,1.17-2.14,3.07,0,4.25a9.06,9.06,0,0,0,7.78,0C719.42,247,719.42,245.08,717.27,243.91Z"/><path class="cls-2" d="M698.27,254.91a9,9,0,0,0-7.77,0c-2.16,1.17-2.16,3.07,0,4.25a9,9,0,0,0,7.77,0C700.42,258,700.42,256.08,698.27,254.91Z"/><path class="cls-2" d="M678.27,265.91a9,9,0,0,0-7.77,0c-2.16,1.17-2.16,3.07,0,4.25a9,9,0,0,0,7.77,0C680.41,269,680.42,267.08,678.27,265.91Z"/><path class="cls-2" d="M659.27,276.91a9,9,0,0,0-7.77,0c-2.16,1.17-2.16,3.07,0,4.25a9,9,0,0,0,7.77,0C661.42,280,661.42,278.08,659.27,276.91Z"/><path class="cls-2" d="M640.27,288.91a9.06,9.06,0,0,0-7.78,0c-2.14,1.17-2.14,3.07,0,4.25a9.06,9.06,0,0,0,7.78,0C642.42,292,642.42,290.08,640.27,288.91Z"/><path class="cls-3" d="M646.8,315.37A20.39,20.39,0,0,0,636.3,313H626v1a15.24,15.24,0,0,0-3.13,1.35c-5.37,3.13-5.34,8.2.07,11.33A15.46,15.46,0,0,0,626,328v1h11.45a19.84,19.84,0,0,0,9.39-2.33C652.24,323.56,652.22,318.5,646.8,315.37Z"/><path class="cls-4" d="M617,326.69c-2.76-1.58-4.14-3.64-4.13-5.71v-9c0,2.07,1.37,4.14,4.13,5.71,5.48,3.13,14.34,3.13,19.79,0,2.71-1.55,4.06-3.59,4.07-5.63v8.95c0,2-1.36,4.07-4.07,5.63C631.35,329.82,622.49,329.82,617,326.69Z"/><path class="cls-5" d="M617,317.69c-5.49-3.13-5.52-8.19-.08-11.31s14.32-3.13,19.81,0,5.51,8.18.06,11.32S622.5,320.81,617,317.69Z"/><path class="cls-6" d="M622.87,315l-2-1.07,7.67-4.16-3.11-.89L627,308l5.63,1.45.21.11Z"/><path class="cls-7" d="M546.88,256,493.81,287.1a9.35,9.35,0,0,1-9.48,0l-11.44-6.69a9.4,9.4,0,0,0-9.48,0L429.88,300"/><path class="cls-6" d="M508.88,275.53a3.5,3.5,0,1,1,3.5,3.5A3.51,3.51,0,0,1,508.88,275.53Z"/><path class="cls-6" d="M528.88,264.53a3.5,3.5,0,1,1,3.5,3.5A3.51,3.51,0,0,1,528.88,264.53Z"/><path class="cls-6" d="M444.88,288.53a3.5,3.5,0,1,1,3.5,3.5A3.5,3.5,0,0,1,444.88,288.53Z"/><path class="cls-8" d="M666.88,225.07a31.24,31.24,0,0,0-9-2.85A64.48,64.48,0,0,0,646.09,221H576.45c-3.82,0-6.51.46-7.77,1.19s-1.07,1.73.84,2.85V269c-1.91,1.11-2.09,2.12-.84,2.85s4,1.18,7.77,1.18h69.64a64.56,64.56,0,0,0,11.83-1.18,31.67,31.67,0,0,0,9-2.85Z"/><path class="cls-9" d="M415,483.27,377.94,461.8c-2-1.18-3.06-2.72-3.06-4.27s1-3.09,3.06-4.28L415,431.8a16.27,16.27,0,0,1,14.76,0l37.06,21.45c2.05,1.18,3.06,2.73,3.06,4.28s-1,3.09-3.06,4.27l-37.06,21.47a16.35,16.35,0,0,1-14.76,0Z"/><path class="cls-10" d="M466.82,461.32l-37.06,21.54a16.27,16.27,0,0,1-14.76,0l-37.06-21.54c-2-1.18-3.06-2.73-3.06-4.29v56.41c0,1.55,1,3.09,3.06,4.29L415,539.26a16.27,16.27,0,0,0,14.76,0l37.06-21.53c2.05-1.19,3.06-2.74,3.06-4.28V457C469.88,458.59,468.86,460.14,466.82,461.32Z"/><path class="cls-11" d="M422.88,452l9,5.5-9,5.5-9-5.5Z"/><path class="cls-11" d="M437.88,461l9,5.5-9,5.5-9-5.5Z"/><path class="cls-11" d="M452.89,452l9,5.5-9,5.5-9-5.5Z"/><path class="cls-11" d="M422.88,469l9,5.5-9,5.5-9-5.5Z"/><path class="cls-11" d="M407.89,444l9,5.5-9,5.5-9-5.5Z"/><path class="cls-11" d="M437.88,444l9,5.5-9,5.5-9-5.5Z"/><path class="cls-11" d="M422.88,435l9,5.5-9,5.5-9-5.5Z"/><path class="cls-11" d="M392.89,452l9,5.5-9,5.5-9-5.5Z"/><path class="cls-11" d="M407.89,461l9,5.5-9,5.5-9-5.5Z"/><path class="cls-12" d="M408.88,497l-27-15.64V464l19.94,11.56Z"/><path class="cls-13" d="M608.9,250.77l-35,20.31c-1.93,1.12-3.67,1.22-4.93.49s-2-2.3-2-4.53V226.43a15.5,15.5,0,0,1,7-12.13l35-20.31c1.93-1.12,3.67-1.22,4.94-.49s2,2.3,2,4.52v40.62a15.47,15.47,0,0,1-7,12.13Z"/><path class="cls-14" d="M606.19,247.8l-28.61,16.46c-1.58.91-3,1-4,.39a4,4,0,0,1-1.67-3.67v-32.9a12.51,12.51,0,0,1,5.7-9.82l28.61-16.45a4,4,0,0,1,4-.4c1,.59,1.66,1.86,1.66,3.66V238a12.47,12.47,0,0,1-5.69,9.82Z"/><path class="cls-15" d="M566.86,267.51V227a15.48,15.48,0,0,1,7-12.11l35.09-20.28c1.93-1.12,3.68-1.22,4.94-.5l-46-26.56c-1.26-.73-3-.62-4.94.49l-35.09,20.29a15.44,15.44,0,0,0-7,12.1V241c0,2.23.78,3.79,2,4.52l46,26.56C567.64,271.3,566.86,269.73,566.86,267.51Z"/><path class="cls-16" d="M567.9,167.5c-1.26-.73-3-.62-4.94.48L527.87,188.1a15.3,15.3,0,0,0-7,12v4.53l4.25,2.43,13.12,22.59L566.86,246V226.44a14,14,0,0,1,2-6.83,14.18,14.18,0,0,1,4.94-5.18l35.09-20.11c1.93-1.1,3.68-1.2,4.94-.49Z"/><path class="cls-9" d="M82.88,300l-49,28,49,28,49-28Zm0,48.17L47.59,328l35.29-20.17L118.18,328Z"/><path class="cls-13" d="M82.88,356.37V413l49-28.33V328Z"/><path class="cls-17" d="M33.88,328V384.7l49,28.33V356.37Z"/><path class="cls-18" d="M51.48,330l31.4-17.89V308l-35,20Z"/><path class="cls-17" d="M114.28,330l-31.4-17.89V308l35,20Z"/><path class="cls-19" d="M50.88,330.53,82.38,312l31.5,18.5L82.38,349Z"/><path class="cls-20" d="M50.88,330l31.4-18,3.6,2.06L54.48,332Z"/><path class="cls-20" d="M86.88,314l-4-6v4Z"/><path class="cls-21" d="M101.88,332.53,90.27,326H82.88l11.62,6.5L82.88,339h7.39Z"/><path class="cls-6" d="M83.38,322l11.5,6.5L83.38,335l-11.5-6.5Z"/><path class="cls-22" d="M93.88,332.31l-11,6.72v-4.27l11-6.73Z"/><path class="cls-23" d="M71.88,332.31l11,6.72v-4.27l-11-6.73Z"/><path class="cls-2" d="M654.88,357l-49-28,49-28,49,28Z"/><path class="cls-17" d="M654.88,414l-49-28.33V329l49,28.34Z"/><path class="cls-13" d="M654.88,414l49-28.33V329l-49,28.34Z"/><path class="cls-11" d="M654.88,311l-4-2.49,4-2.51,4,2.51Z"/><path class="cls-11" d="M663.89,316l-4-2.5,4-2.5,4,2.5Z"/><path class="cls-11" d="M672.88,322l-4-2.5,4-2.5,4,2.5Z"/><path class="cls-11" d="M681.88,327l-4-2.5,4-2.5,4,2.5Z"/><path class="cls-11" d="M690.88,332l-4-2.5,4-2.5,4,2.5Z"/><path class="cls-11" d="M645.88,316l-4-2.5,4-2.5,4,2.5Z"/><path class="cls-11" d="M654.88,322l-4-2.5,4-2.5,4,2.5Z"/><path class="cls-11" d="M663.89,327l-4-2.5,4-2.5,4,2.5Z"/><path class="cls-11" d="M672.88,332l-4-2.5,4-2.5,4,2.5Z"/><path class="cls-11" d="M681.88,337l-4-2.49,4-2.51,4,2.51Z"/><path class="cls-11" d="M635.89,322l-4-2.5,4-2.5,4,2.5Z"/><path class="cls-11" d="M645.88,327l-4-2.5,4-2.5,4,2.5Z"/><path class="cls-11" d="M654.88,332l-4-2.5,4-2.5,4,2.5Z"/><path class="cls-11" d="M663.89,337l-4-2.49,4-2.51,4,2.51Z"/><path class="cls-11" d="M672.88,343l-4-2.5,4-2.5,4,2.5Z"/><path class="cls-11" d="M626.88,327l-4-2.5,4-2.5,4,2.5Z"/><path class="cls-11" d="M635.89,332l-4-2.5,4-2.5,4,2.5Z"/><path class="cls-11" d="M645.88,337l-4-2.49,4-2.51,4,2.51Z"/><path class="cls-11" d="M654.88,343l-4-2.5,4-2.5,4,2.5Z"/><path class="cls-11" d="M663.89,348l-4-2.49,4-2.51,4,2.51Z"/><path class="cls-11" d="M617.88,332l-4-2.5,4-2.5,4,2.5Z"/><path class="cls-11" d="M626.88,337l-4-2.49,4-2.51,4,2.51Z"/><path class="cls-11" d="M635.89,343l-4-2.5,4-2.5,4,2.5Z"/><path class="cls-11" d="M645.88,348l-4-2.49,4-2.51,4,2.51Z"/><path class="cls-11" d="M654.88,353l-4-2.5,4-2.5,4,2.5Z"/><path class="cls-11" d="M613.88,344l-4-2.33V337l4,2.34Z"/><path class="cls-11" d="M622.88,349l-4-2.33V342l4,2.33Z"/><path class="cls-11" d="M631.88,354l-4-2.33V347l4,2.34Z"/><path class="cls-11" d="M640.88,360l-4-2.33V353l4,2.33Z"/><path class="cls-11" d="M649.88,365l-4-2.32V358l4,2.34Z"/><path class="cls-11" d="M613.88,354l-4-2.33V347l4,2.34Z"/><path class="cls-11" d="M622.88,360l-4-2.33V353l4,2.33Z"/><path class="cls-11" d="M631.88,365l-4-2.32V358l4,2.34Z"/><path class="cls-11" d="M640.88,370l-4-2.33V363l4,2.34Z"/><path class="cls-11" d="M649.88,376l-4-2.32V369l4,2.34Z"/><path class="cls-11" d="M613.88,365l-4-2.32V358l4,2.34Z"/><path class="cls-11" d="M622.88,370l-4-2.33V363l4,2.34Z"/><path class="cls-11" d="M631.88,376l-4-2.32V369l4,2.34Z"/><path class="cls-11" d="M640.88,381l-4-2.33V374l4,2.34Z"/><path class="cls-11" d="M649.88,386l-4-2.33V379l4,2.33Z"/><path class="cls-11" d="M613.88,376l-4-2.32V369l4,2.34Z"/><path class="cls-11" d="M622.88,381l-4-2.33V374l4,2.34Z"/><path class="cls-11" d="M631.88,386l-4-2.33V379l4,2.33Z"/><path class="cls-11" d="M640.88,391l-4-2.33V384l4,2.34Z"/><path class="cls-11" d="M649.88,397l-4-2.33V390l4,2.33Z"/><path class="cls-11" d="M613.88,386l-4-2.33V379l4,2.33Z"/><path class="cls-11" d="M622.88,391l-4-2.33V384l4,2.34Z"/><path class="cls-11" d="M631.88,397l-4-2.33V390l4,2.33Z"/><path class="cls-11" d="M640.88,402l-4-2.32V395l4,2.34Z"/><path class="cls-11" d="M649.88,407l-4-2.33V400l4,2.34Z"/><path class="cls-11" d="M694.88,344l4-2.33V337l-4,2.34Z"/><path class="cls-11" d="M685.88,349l4-2.33V342l-4,2.33Z"/><path class="cls-11" d="M676.88,354l4-2.33V347l-4,2.34Z"/><path class="cls-11" d="M667.88,360l4-2.33V353l-4,2.33Z"/><path class="cls-11" d="M658.88,365l4-2.32V358l-4,2.34Z"/><path class="cls-11" d="M694.88,354l4-2.33V347l-4,2.34Z"/><path class="cls-11" d="M685.88,360l4-2.33V353l-4,2.33Z"/><path class="cls-11" d="M676.88,365l4-2.32V358l-4,2.34Z"/><path class="cls-11" d="M667.88,370l4-2.33V363l-4,2.34Z"/><path class="cls-11" d="M658.88,376l4-2.32V369l-4,2.34Z"/><path class="cls-11" d="M694.88,365l4-2.32V358l-4,2.34Z"/><path class="cls-11" d="M685.88,370l4-2.33V363l-4,2.34Z"/><path class="cls-11" d="M676.88,376l4-2.32V369l-4,2.34Z"/><path class="cls-11" d="M667.88,381l4-2.33V374l-4,2.34Z"/><path class="cls-11" d="M658.88,386l4-2.33V379l-4,2.33Z"/><path class="cls-11" d="M694.88,376l4-2.32V369l-4,2.34Z"/><path class="cls-11" d="M685.88,381l4-2.33V374l-4,2.34Z"/><path class="cls-11" d="M676.88,386l4-2.33V379l-4,2.33Z"/><path class="cls-11" d="M667.88,391l4-2.33V384l-4,2.34Z"/><path class="cls-11" d="M658.88,397l4-2.33V390l-4,2.33Z"/><path class="cls-11" d="M694.88,386l4-2.33V379l-4,2.33Z"/><path class="cls-11" d="M685.88,391l4-2.33V384l-4,2.34Z"/><path class="cls-11" d="M676.88,397l4-2.33V390l-4,2.33Z"/><path class="cls-11" d="M667.88,402l4-2.32V395l-4,2.34Z"/><path class="cls-11" d="M658.88,407l4-2.33V400l-4,2.34Z"/><path class="cls-17" d="M501.86,200.77l35,20.31c1.93,1.12,3.67,1.22,4.94.49s2-2.3,2-4.53V176.42a15.43,15.43,0,0,0-7-12.12l-35-20.31c-1.93-1.11-3.67-1.22-4.93-.49s-2.05,2.3-2.05,4.53v40.62a15.5,15.5,0,0,0,7,12.12Z"/><path class="cls-24" d="M543.9,217.49V176.93a15.39,15.39,0,0,0-7-12.1l-35.1-20.28c-1.93-1.11-3.67-1.22-4.94-.49l46-26.56c1.26-.73,3-.62,4.94.49l35.09,20.29a15.44,15.44,0,0,1,7,12.1v40.56c0,2.23-.78,3.8-2,4.53l-46,26.56C543.12,221.29,543.9,219.72,543.9,217.49Z"/><path class="cls-13" d="M499.88,186l39,22.27V214l-39-22.27Z"/><path class="cls-13" d="M499.88,175l39,22.27V203l-39-22.27Z"/><path class="cls-13" d="M499.88,163l39,22.28V191l-39-22.26Z"/><path class="cls-13" d="M499.88,152l39,22.28V180l-39-22.27Z"/><path class="cls-25" d="M554.63,541H525.88l18.24,10.5L525.88,562h28.75l18.25-10.5Z"/><path class="cls-26" d="M525.88,562l18-10.56V530l-18,10.56Z"/><path class="cls-27" d="M525.88,562l-18-10.56V530l18,10.56Z"/><path class="cls-9" d="M525.89,541l-18-10.5,18-10.5,18,10.5Z"/><path class="cls-28" d="M148.88,37l11-6.27V18l-11,6.27Z"/><path class="cls-29" d="M148.88,37l-11-6.27V18l11,6.27Z"/><path class="cls-6" d="M148.89,24l-11-6,11-6,11,6Z"/><path class="cls-26" d="M301.88,97l18-10.55V65l-18,10.56Z"/><path class="cls-27" d="M301.88,97l-18-10.55V65l18,10.56Z"/><path class="cls-30" d="M301.88,76l-18-10.5,18-10.5,18,10.5Z"/><path class="cls-31" d="M416.26,284.81a16.65,16.65,0,0,0-15,0L317,333.49c-4.12,2.37-4.12,6.26,0,8.64l43.52,25.12a16.59,16.59,0,0,0,15,0l84.33-48.67c4.12-2.37,4.12-6.26,0-8.64Z"/><path class="cls-11" d="M424,315h-.73l-54.36,31h43.28l47.67-27.17a5.43,5.43,0,0,0,3.05-3.83Z"/><path class="cls-32" d="M459.8,318.22l-84.34,49.13a16.46,16.46,0,0,1-15,0L317,342c-2-1.15-3-2.66-3.07-4.17,0,0,0,6.69,0,6.69,0,1.58,1,3.17,3.08,4.37l43.53,25.36a16.52,16.52,0,0,0,15,0L459.8,325.1c2.15-1.24,3.17-2.89,3.08-4.54V314C462.81,315.56,461.79,317.07,459.8,318.22Z"/><path class="cls-13" d="M416.84,301.4a71.75,71.75,0,0,1-3.4-22.9l-6-3.47c0,1.54,0,3.87.2,6.81l-48.76,28.09c0,5.14,0,20.55,9.44,36.1l54.56-31.44Z"/><path class="cls-33" d="M413.88,278.5,358.94,310l-6.06-3.47L407.83,275Z"/><path class="cls-17" d="M367.88,346c-9.16-15.73-9.17-31.31-9.17-36.5l-5.83-3.5a84,84,0,0,0,7.21,35.34Z"/><path class="cls-34" d="M359.88,319.63a69.3,69.3,0,0,0,1.77,9.4l54.23-31.6a73.17,73.17,0,0,1-1.77-9.4Z"/><path class="cls-35" d="M503.88,65.4c0-4.78-3.37-6.74-7.49-4.34l-202,117.05c-4.12,2.38-7.49,8.25-7.49,13V327l217-125.73Z"/><path class="cls-36" d="M488.28,56.05,286.37,172.79a16.65,16.65,0,0,0-7.49,13V321.33L287,326V190.49a16.65,16.65,0,0,1,7.49-13L496.4,60.75a5.82,5.82,0,0,1,4.48-.85l-6.5-3.7C493,54.76,490.8,54.59,488.28,56.05Z"/><path class="cls-17" d="M286.88,326.31v27.38c0,4.76,3.38,6.71,7.49,4.32l202-116.62a16.6,16.6,0,0,0,7.49-13V201Z"/><path class="cls-17" d="M287,354.37v-27.6L278.88,322v27.61c0,2.41.85,4.11,2.22,4.89l7.78,4.5C287.72,358.18,287,356.58,287,354.37Z"/><path class="cls-2" d="M496.88,204.42,294.88,321V185.65L496.88,69Z"/><path class="cls-29" d="M343.88,178l-16,9.26V191l16-9.25Z"/><path class="cls-29" d="M404.88,144l-55,31.21V179l55-31.2Z"/><path class="cls-29" d="M421.88,134.14V138l41-24.11V110Z"/><path class="cls-29" d="M347.88,242l-20,12v4l20-12Z"/><path class="cls-29" d="M350.88,245l97-56.12V185l-97,56.13Z"/><path class="cls-29" d="M450.88,183.07v4l12-7v-4Z"/><path class="cls-29" d="M347.88,202l-20,12v4l20-12Z"/><path class="cls-29" d="M354.88,202l80-46.17V152l-80,46.18Z"/><path class="cls-29" d="M440.88,148.28V152l22-12.25V136Z"/><path class="cls-29" d="M343.88,275l10-6v-4l-10,6Z"/><path class="cls-29" d="M456.88,206l-99,57.17V267l99-57.16Z"/><path class="cls-29" d="M337.88,274l-10,6v4l10-6Z"/><path class="cls-29" d="M434.88,166.21V170l28-16.18V150Z"/><path class="cls-29" d="M424.88,172l-93,53.18V229l93-53.16Z"/><path class="cls-29" d="M358.88,223l-31,18.11V245l31-18.1Z"/><path class="cls-29" d="M368.88,217.2V221l94-54.16V163Z"/><path class="cls-29" d="M442.88,200.29V204l20-11.25V189Z"/><path class="cls-29" d="M378.88,241l58-33.17V204l-58,33.17Z"/><path class="cls-29" d="M368.88,243l-41,24.08V271l41-24.07Z"/><path class="cls-29" d="M372.88,179l82-47.17V128l-82,47.18Z"/><path class="cls-29" d="M362.88,181l-35,20.14V205l35-20.13Z"/><path class="cls-37" d="M334.88,237.91c0-38.52,27.09-85.37,60.5-104.63s60.5-3.64,60.5,34.88-27.08,85.37-60.5,104.62S334.88,276.43,334.88,237.91Z"/><path class="cls-6" d="M377.88,219.62c0-15.56,11-34.47,24.5-42.25s24.5-1.47,24.5,14.08-11,34.47-24.5,42.25S377.88,235.17,377.88,219.62Z"/><path class="cls-5" d="M403.88,170.26c-17.11,9.88-31,33.9-31,53.66s13.88,27.76,31,17.88,31-33.89,31-53.65S421,160.39,403.88,170.26Zm0,63.8c-13.4,7.74-24.28,1.46-24.28-14s10.88-34.3,24.28-42,24.29-1.46,24.29,14S417.3,226.32,403.88,234.06Z"/><path class="cls-38" d="M419.79,176c3.77,2.73,6,7.85,6,14.91,0,15.33-10.76,34-24,41.62-6.11,3.53-11.69,4.11-15.93,2.23,4.4,3.19,10.83,3.1,18-1,13.28-7.66,24-26.29,24-41.62C427.89,183.86,424.76,178.24,419.79,176Z"/><path class="cls-39" d="M417.65,163.4c-5.68-3.56-13.68-3.23-22.56,1.87-17.23,9.91-31.21,34-31.21,53.85,0,10.06,3.6,17.07,9.39,20.26h0l8.15,4.65c-5.24-3.4-8.45-10.19-8.45-19.68,0-19.83,14-43.94,31.22-53.85,8.43-4.86,16.08-5.4,21.7-2.37l-10-5.77Z"/><path class="cls-5" d="M415.88,205.77c0-4.2-1.89-6.8-4.73-7.24a15.2,15.2,0,0,0,2-7c0-4.21-2.6-6.2-6-4.94V184l-3.36,2v2.41l-3.17,1.86v-2.41l-3.31,1.93v2.42l-4.39,2.56v4.55l1.76-1v27.16l-1.76,1V231l4.39-2.56v2.41l3.31-1.94v-2.41l3.17-1.85v2.41l3.36-2V222.6C412.05,218.94,415.88,211.76,415.88,205.77Zm-10.1-14c1.9-1.11,3.46-.2,3.46,2a7.74,7.74,0,0,1-3.46,6.05l-7.25,4.23V196Zm0,27.16-7.25,4.22V208.64l7.25-4.22c3.43-2,6.21-.37,6.21,3.64A14,14,0,0,1,405.78,218.94Z"/><path class="cls-40" d="M404.2,198.49l-5.32,3.08V204l7.45-4.3a7.91,7.91,0,0,0,3.55-6.17c0-1.78-1-2.71-2.36-2.5a3.49,3.49,0,0,1,.23,1.26A7.9,7.9,0,0,1,404.2,198.49Z"/><path class="cls-41" d="M409,204a5.65,5.65,0,0,1,.88,3.32c0,4.09-2.69,9.08-6,11.12l-5,3.09V224l7-4.32c3.31-2,6-7,6-11.12C411.87,205.9,410.72,204.27,409,204Z"/><path class="cls-42" d="M411.06,198l-.18.35a5.9,5.9,0,0,1,1.95.65h.05Z"/><path class="cls-23" d="M406.89,186.91a4.16,4.16,0,0,1,4,.12l-1.85-1.2a3.66,3.66,0,0,0-2.15-.8v1.88Z"/><path class="cls-43" d="M403.88,227v-2l-2,1Z"/><path class="cls-43" d="M396.88,230v-2l-2,1Z"/><path class="cls-23" d="M405,183l-3.09,1.86,1.91,1.14,3.09-1.85Z"/><path class="cls-43" d="M401.88,185v2.67l2,1.33v-2.66Z"/><path class="cls-23" d="M403.88,189l-2.18-1.33-1.17.71L398.36,187l-3.48,2.13,2.18,1.35,3.49-2.14V191Z"/><path class="cls-43" d="M396.88,190.37l-2-1.34v2.66l2,1.34Z"/><path class="cls-23" d="M396.88,192.32,395,191l-4.08,2.72,1.93,1.28Z"/><path class="cls-43" d="M392.88,195.29l-2-1.26v4.75l1.69,1.06.31.19Z"/><path class="cls-43" d="M393.19,199l-.31-.18v25l2,1.21V198Z"/><path class="cls-43" d="M390.88,229.77l2,1.26v-4.74l-2-1.26Z"/><path class="cls-23" d="M392.71,224l-1.83.92,2.17,1.08,1.83-.91Z"/><path class="cls-44" d="M653,496.62l3.51-2-4.29-2.46h-7.6a112.26,112.26,0,0,0-25.9-7.79L606.12,483,603,484.81a98.35,98.35,0,0,1,25.74,8.37l-1.49,2.76,2.34,1.34-55.72,31.83L579,532h10.24l53.38-30.49a46.16,46.16,0,0,1,9.53,9.33l-.31,4.52h14.94l3.11-1.77C666.2,506.92,659.9,501,653,496.62Z"/><path class="cls-29" d="M638.77,489l-4.89-2.72L638,484l4.9,2.73Z"/><path class="cls-45" d="M638.88,489.39V495l4-2.36V487Z"/><path class="cls-31" d="M654.88,505.27c-4-7.4-11.25-13.88-19-18.33s-19-8.59-31.9-10.91l-3.1,1.78a97.42,97.42,0,0,1,25.59,8.36L625,488.94l7.41,4.25,4.82-.85c5.93,4,11.43,8.94,14.56,14.69Z"/><path class="cls-17" d="M624.88,489v8.67l7,4.33v-8.67Zm1.11,2,4.79,3V500L626,497Z"/><path class="cls-13" d="M632.88,501l5-.82V492l-5,.82Z"/><path class="cls-13" d="M651.88,515l3-1.72V505l-3,1.73Z"/><path class="cls-17" d="M636.88,492c6.1,4,11.77,8.86,15,14.56V515c-3.22-5.69-8.89-10.58-15-14.55Z"/><path class="cls-17" d="M600.88,478a101.19,101.19,0,0,1,26,8.28L625.37,489v5a101.22,101.22,0,0,0-24.49-7.57Z"/><path class="cls-29" d="M577,525l-5.07-2.91,54-31.09,5,2.92Z"/><path class="cls-45" d="M576.88,525.19V531l54-31.15V494Z"/><path class="cls-28" d="M571.88,522l5,3v6l-5-3Z"/><path class="cls-46" d="M218.87,483.89c.06-.79-.69-1.7-2.35-2.65l-20.73-11.89c-3.91-2.25-11.82-4.18-20-5.11V460c0-2.07-1.37-4.14-4.12-5.72l-20.73-11.9c-5.5-3.14-14.43-3.14-19.93,0-2.76,1.58-4.13,3.67-4.12,5.75V453h0c-.08,2.12,1.29,4.26,4.11,5.87l20.74,11.9a14.35,14.35,0,0,0,1.89.9c-.14.82.58,1.74,2.3,2.73l20.74,11.9c5.5,3.14,18.91,5.71,29.89,5.71,8.25,0,12.83-1.45,12.27-3.5h0v-4.65Zm-51.63-20.71a12.67,12.67,0,0,1-4.09,1.24,12,12,0,0,1-7-1.23L135.4,451.3c-3.06-1.76-3.06-4.61,0-6.36a12.31,12.31,0,0,1,11.09,0l20.74,11.89C170.3,458.58,170.3,461.44,167.24,463.18Zm34.9,21.25c-6.11,0-13.59-1.43-16.65-3.19L169.2,471.9a15.76,15.76,0,0,0,1.57-.67c6,.07,13.19,1.47,16.18,3.18l17.34,9.95C203.64,484.4,202.92,484.43,202.14,484.43Z"/><path class="cls-31" d="M137.79,461.67,117,449.8c-5.51-3.14-5.51-8.27,0-11.41s14.46-3.14,20,0l20.77,11.87c5.51,3.14,5.51,8.27,0,11.41S143.29,464.82,137.79,461.67Zm-5.23-20.75a12.35,12.35,0,0,0-11.11,0c-3.07,1.75-3.07,4.6,0,6.35l20.77,11.87a12.39,12.39,0,0,0,11.13,0c3.06-1.75,3.06-4.6,0-6.35Z"/><path class="cls-47" d="M152.62,453.3l-20.5-11.94a12,12,0,0,0-11,0c-2.68,1.55-3,4-.92,5.74a6.8,6.8,0,0,1,.92-.66,12.06,12.06,0,0,1,11,0l20.5,11.95a5.34,5.34,0,0,1,.92.64C155.6,457.28,155.29,454.86,152.62,453.3Z"/><path class="cls-48" d="M157.76,461.61c-5.51,3.15-14.47,3.15-20,0L117,449.72c-2.75-1.57-4.12-3.62-4.13-5.69v4.88h0c-.08,2.12,1.29,4.26,4.12,5.87l20.78,11.89c5.5,3.15,14.46,3.15,20,0,2.81-1.6,4.17-3.73,4.11-5.84h0v-4.94C161.89,458,160.51,460,157.76,461.61Z"/><path class="cls-49" d="M180.89,461.19l-20.81-11.82c-2.81-1.6-5.34-1.71-7.17-.61l-4,2.29h0c1.79-.84,4.15-.65,6.76.83l20.8,11.82c5.52,3.13,10,10.77,10,17,0,3.06-1.07,5.22-2.8,6.27h0l4.22-2.39h0c1.86-1,3-3.23,3-6.41C190.89,472,186.4,464.32,180.89,461.19Z"/><path class="cls-22" d="M154.34,457.43a6.6,6.6,0,0,1,.1-1.13c-2.59-.91-4.56.55-4.56,3.65,0,.13,0,.28,0,.42a10.11,10.11,0,0,0,3.26-1.09,6.12,6.12,0,0,0,1.24-.91C154.37,458.05,154.34,457.73,154.34,457.43Zm26.5,21.34-20.91-11.84a7.44,7.44,0,0,1-1.19-.82,8.44,8.44,0,0,1-1.13.73,16.7,16.7,0,0,1-3.67,1.5,8.94,8.94,0,0,0,1.54,1.11l6.71,3.8,14.2,8c2.73,1.54,5,.6,5.49-2.05A6.62,6.62,0,0,1,180.84,478.77Z"/><path class="cls-23" d="M176.84,464.11l-20.91-11.75c-5.54-3.11-10.05-.58-10.05,5.65a15,15,0,0,0,.33,3,14.07,14.07,0,0,0,4.15-.08c0-.14,0-.29,0-.43,0-3.47,2.5-4.87,5.59-3.14l20.91,11.75a12,12,0,0,1,5.59,9.43c0,3.48-2.51,4.88-5.59,3.15L155.93,470a8,8,0,0,1-1.53-1.11,22.93,22.93,0,0,1-4.28.76,19,19,0,0,0,5.81,5.35l20.91,11.75c5.54,3.11,10,.58,10-5.65S182.37,467.22,176.84,464.11Z"/><path class="cls-13" d="M234.88,468V353.8c0-5,3.55-11.09,7.93-13.59L292,312.1c4.38-2.5,7.93-.47,7.93,4.53V430.86Z"/><path class="cls-50" d="M184.29,245.6l-.12-.07,0,0c-1.42-.76-3.34-.62-5.47.6l-48.89,28.18c-4.36,2.52-7.89,8.62-7.89,13.64V402.47L235.63,468V353.5a17.38,17.38,0,0,1,7.89-13.63l48.89-28.18c2.13-1.23,4-1.36,5.47-.6Z"/><path class="cls-17" d="M244.88,357.32l45-26.29v4.73l-45,26.27Z"/><path class="cls-17" d="M244.88,365.31l45-26.28v4.73l-45,26.27Z"/><path class="cls-51" d="M244.88,377.57l6-3.54v2.47l-6,3.53Z"/><path class="cls-51" d="M254.88,372.57l6-3.54v2.47l-6,3.53Z"/><path class="cls-51" d="M264.88,366.57l6-3.54v2.48l-6,3.52Z"/><path class="cls-51" d="M273.88,361.56l6-3.53v2.48l-6,3.52Z"/><path class="cls-51" d="M283.88,355.56l6-3.53v2.47l-6,3.53Z"/><path class="cls-18" d="M270.72,385a3.92,3.92,0,0,1,.65,2.34,10.24,10.24,0,0,1-4.82,8.08,4.12,4.12,0,0,1-2.67.59c.84,1.14,2.39,1.35,4.18.36a10.27,10.27,0,0,0,4.82-8.08C272.88,386.44,272,385.27,270.72,385Z"/><path class="cls-52" d="M266.14,395.4a10.16,10.16,0,0,0,4.74-8,3.89,3.89,0,0,0-.64-2.31,4,4,0,0,0-2.62.58,10.19,10.19,0,0,0-4.74,8,3.94,3.94,0,0,0,.64,2.32A3.93,3.93,0,0,0,266.14,395.4Z"/><path class="cls-17" d="M289.88,437l-45,26V420.08l45-26.05Z"/><path class="cls-13" d="M127.88,322.76a18.5,18.5,0,0,1,2,7.35v29.82c0,2-.89,4.18-2,4.86l-2,1.24V319S126.78,320.71,127.88,322.76Z"/><path class="cls-13" d="M205.88,429l-3-1.55V353.69l3-4.66Z"/><path class="cls-53" d="M205.88,429l3-1.55V353.69l-3-4.66Z"/><path class="cls-54" d="M151.38,318.7l-2.5,4.33,53.68,31,2.5-4.33Z"/><path class="cls-55" d="M148.88,323l54,31v74l-54-31Z"/><path class="cls-13" d="M199.88,422.86c0-.74.45-1,1-.67a2.72,2.72,0,0,1,1,2c0,.73-.45,1-1,.66A2.64,2.64,0,0,1,199.88,422.86Z"/><path class="cls-13" d="M193.88,419.86c0-.74.45-1,1-.67a2.7,2.7,0,0,1,1,2c0,.73-.45,1-1,.66A2.64,2.64,0,0,1,193.88,419.86Z"/><path class="cls-13" d="M196.88,417.86c0-.74.45-1,1-.67a2.71,2.71,0,0,1,1,2c0,.75-.45,1-1,.68A2.73,2.73,0,0,1,196.88,417.86Z"/><path class="cls-13" d="M199.88,416.86c0-.74.45-1,1-.67a2.7,2.7,0,0,1,1,2c0,.73-.45,1-1,.66A2.64,2.64,0,0,1,199.88,416.86Z"/><path class="cls-13" d="M188.88,416.86c0-.74.45-1,1-.67a2.72,2.72,0,0,1,1,2c0,.73-.45,1-1,.66A2.64,2.64,0,0,1,188.88,416.86Z"/><path class="cls-13" d="M190.88,414.87c0-.74.45-1.05,1-.68a2.69,2.69,0,0,1,1,2c0,.74-.45,1.05-1,.67A2.64,2.64,0,0,1,190.88,414.87Z"/><path class="cls-13" d="M193.88,412.86c0-.74.45-1,1-.67a2.7,2.7,0,0,1,1,2c0,.73-.45,1-1,.66A2.68,2.68,0,0,1,193.88,412.86Z"/><path class="cls-13" d="M196.88,411.86c0-.74.45-1,1-.67a2.7,2.7,0,0,1,1,2c0,.73-.45,1-1,.66A2.66,2.66,0,0,1,196.88,411.86Z"/><path class="cls-13" d="M199.88,409.86c0-.74.45-1,1-.67a2.7,2.7,0,0,1,1,2c0,.73-.45,1-1,.66A2.68,2.68,0,0,1,199.88,409.86Z"/><path class="cls-13" d="M182.88,412.86c0-.74.45-1,1-.67a2.7,2.7,0,0,1,1,2c0,.73-.45,1-1,.66A2.68,2.68,0,0,1,182.88,412.86Z"/><path class="cls-13" d="M185.88,411.86c0-.74.45-1,1-.67a2.7,2.7,0,0,1,1,2c0,.73-.45,1-1,.66A2.64,2.64,0,0,1,185.88,411.86Z"/><path class="cls-13" d="M188.88,409.86c0-.74.45-1,1-.67a2.72,2.72,0,0,1,1,2c0,.73-.45,1-1,.66A2.68,2.68,0,0,1,188.88,409.86Z"/><path class="cls-13" d="M190.88,408.86c0-.74.45-1,1-.67a2.72,2.72,0,0,1,1,2c0,.73-.45,1-1,.66A2.64,2.64,0,0,1,190.88,408.86Z"/><path class="cls-13" d="M193.88,406.86c0-.74.45-1,1-.67a2.72,2.72,0,0,1,1,2c0,.73-.45,1-1,.66A2.68,2.68,0,0,1,193.88,406.86Z"/><path class="cls-13" d="M196.88,404.86c0-.74.45-1,1-.67a2.7,2.7,0,0,1,1,2c0,.73-.45,1-1,.66A2.64,2.64,0,0,1,196.88,404.86Z"/><path class="cls-13" d="M199.88,403.86c0-.74.45-1,1-.67a2.72,2.72,0,0,1,1,2c0,.73-.45,1-1,.66A2.65,2.65,0,0,1,199.88,403.86Z"/><path class="cls-13" d="M177.88,409.86c0-.74.45-1,1-.67a2.7,2.7,0,0,1,1,2c0,.73-.45,1-1,.66A2.68,2.68,0,0,1,177.88,409.86Z"/><path class="cls-13" d="M179.88,408.86c0-.74.45-1,1-.67a2.7,2.7,0,0,1,1,2c0,.73-.45,1-1,.66A2.68,2.68,0,0,1,179.88,408.86Z"/><path class="cls-13" d="M182.88,406.86c0-.74.45-1,1-.67a2.71,2.71,0,0,1,1,2c0,.75-.45,1.05-1,.67A2.66,2.66,0,0,1,182.88,406.86Z"/><path class="cls-13" d="M185.88,404.86c0-.74.45-1,1-.67a2.7,2.7,0,0,1,1,2c0,.73-.45,1-1,.66A2.68,2.68,0,0,1,185.88,404.86Z"/><path class="cls-13" d="M188.88,403.86c0-.74.45-1,1-.67a2.69,2.69,0,0,1,1,2c0,.75-.45,1.05-1,.67A2.66,2.66,0,0,1,188.88,403.86Z"/><path class="cls-13" d="M190.88,401.87c0-.75.45-1.05,1-.68a2.69,2.69,0,0,1,1,2c0,.74-.45,1.05-1,.67A2.66,2.66,0,0,1,190.88,401.87Z"/><path class="cls-13" d="M193.88,400.86c0-.74.45-1,1-.67a2.7,2.7,0,0,1,1,2c0,.73-.45,1-1,.66A2.66,2.66,0,0,1,193.88,400.86Z"/><path class="cls-13" d="M196.88,398.86c0-.74.45-1,1-.67a2.71,2.71,0,0,1,1,2c0,.75-.45,1.05-1,.67A2.68,2.68,0,0,1,196.88,398.86Z"/><path class="cls-13" d="M199.88,397.86c0-.74.45-1,1-.67a2.74,2.74,0,0,1,1,2c0,.73-.45,1-1,.66A2.64,2.64,0,0,1,199.88,397.86Z"/><path class="cls-13" d="M171.88,406.86c0-.74.45-1,1-.67a2.7,2.7,0,0,1,1,2c0,.73-.45,1-1,.66A2.66,2.66,0,0,1,171.88,406.86Z"/><path class="cls-13" d="M174.88,404.86c0-.74.45-1,1-.67a2.7,2.7,0,0,1,1,2c0,.73-.45,1-1,.66A2.68,2.68,0,0,1,174.88,404.86Z"/><path class="cls-13" d="M177.88,403.86c0-.74.45-1,1-.67a2.72,2.72,0,0,1,1,2c0,.73-.45,1-1,.66A2.64,2.64,0,0,1,177.88,403.86Z"/><path class="cls-13" d="M179.88,401.86c0-.74.45-1,1-.67a2.72,2.72,0,0,1,1,2c0,.73-.45,1-1,.66A2.68,2.68,0,0,1,179.88,401.86Z"/><path class="cls-13" d="M182.88,400.86c0-.74.45-1,1-.67a2.7,2.7,0,0,1,1,2c0,.73-.45,1-1,.66A2.64,2.64,0,0,1,182.88,400.86Z"/><path class="cls-13" d="M185.88,398.86c0-.74.45-1,1-.67a2.7,2.7,0,0,1,1,2c0,.73-.45,1-1,.66A2.68,2.68,0,0,1,185.88,398.86Z"/><path class="cls-13" d="M188.88,396.86c0-.74.45-1,1-.67a2.7,2.7,0,0,1,1,2c0,.73-.45,1-1,.66A2.64,2.64,0,0,1,188.88,396.86Z"/><path class="cls-13" d="M190.88,395.86c0-.74.45-1,1-.67a2.7,2.7,0,0,1,1,2c0,.73-.45,1-1,.66A2.68,2.68,0,0,1,190.88,395.86Z"/><path class="cls-13" d="M193.88,393.86c0-.74.45-1,1-.67a2.72,2.72,0,0,1,1,2c0,.73-.45,1-1,.66A2.64,2.64,0,0,1,193.88,393.86Z"/><path class="cls-13" d="M196.88,392.86c0-.74.45-1,1-.67a2.72,2.72,0,0,1,1,2c0,.73-.45,1-1,.66A2.68,2.68,0,0,1,196.88,392.86Z"/><path class="cls-13" d="M199.88,390.86c0-.74.45-1,1-.67a2.72,2.72,0,0,1,1,2c0,.75-.45,1.05-1,.67A2.62,2.62,0,0,1,199.88,390.86Z"/><path class="cls-13" d="M166.88,403.86c0-.74.45-1,1-.67a2.72,2.72,0,0,1,1,2c0,.73-.45,1-1,.66A2.64,2.64,0,0,1,166.88,403.86Z"/><path class="cls-13" d="M168.88,401.86c0-.74.45-1,1-.67a2.72,2.72,0,0,1,1,2c0,.73-.45,1-1,.66A2.68,2.68,0,0,1,168.88,401.86Z"/><path class="cls-13" d="M171.88,400.86c0-.74.45-1,1-.67a2.69,2.69,0,0,1,1,2c0,.75-.45,1.05-1,.67A2.68,2.68,0,0,1,171.88,400.86Z"/><path class="cls-13" d="M174.88,398.86c0-.74.45-1,1-.67a2.72,2.72,0,0,1,1,2c0,.73-.45,1-1,.66A2.66,2.66,0,0,1,174.88,398.86Z"/><path class="cls-13" d="M177.88,396.86c0-.74.45-1,1-.67a2.7,2.7,0,0,1,1,2c0,.73-.45,1-1,.66A2.68,2.68,0,0,1,177.88,396.86Z"/><path class="cls-13" d="M179.88,395.86c0-.74.45-1,1-.67a2.72,2.72,0,0,1,1,2c0,.73-.45,1-1,.66A2.68,2.68,0,0,1,179.88,395.86Z"/><path class="cls-13" d="M182.88,393.86c0-.74.45-1,1-.67a2.72,2.72,0,0,1,1,2c0,.73-.45,1-1,.66A2.68,2.68,0,0,1,182.88,393.86Z"/><path class="cls-13" d="M185.88,392.86c0-.74.45-1,1-.67a2.7,2.7,0,0,1,1,2c0,.73-.45,1-1,.66A2.66,2.66,0,0,1,185.88,392.86Z"/><path class="cls-13" d="M188.88,390.86c0-.74.45-1,1-.67a2.71,2.71,0,0,1,1,2c0,.75-.45,1.05-1,.67A2.68,2.68,0,0,1,188.88,390.86Z"/><path class="cls-13" d="M190.88,389.86c0-.74.45-1,1-.67a2.7,2.7,0,0,1,1,2c0,.73-.45,1-1,.66A2.66,2.66,0,0,1,190.88,389.86Z"/><path class="cls-13" d="M193.88,387.86c0-.74.45-1,1-.67a2.7,2.7,0,0,1,1,2c0,.73-.45,1-1,.66A2.68,2.68,0,0,1,193.88,387.86Z"/><path class="cls-13" d="M196.88,385.86c0-.74.45-1,1-.67a2.71,2.71,0,0,1,1,2c0,.75-.45,1.05-1,.67A2.66,2.66,0,0,1,196.88,385.86Z"/><path class="cls-13" d="M199.88,384.86c0-.74.45-1,1-.67a2.72,2.72,0,0,1,1,2c0,.73-.45,1-1,.66A2.65,2.65,0,0,1,199.88,384.86Z"/><path class="cls-13" d="M160.88,400.86c0-.74.45-1,1-.67a2.71,2.71,0,0,1,1,2c0,.75-.45,1.05-1,.67A2.68,2.68,0,0,1,160.88,400.86Z"/><path class="cls-13" d="M163.88,398.86c0-.74.45-1,1-.67a2.7,2.7,0,0,1,1,2c0,.73-.45,1-1,.66A2.66,2.66,0,0,1,163.88,398.86Z"/><path class="cls-13" d="M166.88,396.86c0-.74.45-1,1-.67a2.69,2.69,0,0,1,1,2c0,.75-.45,1.05-1,.67A2.68,2.68,0,0,1,166.88,396.86Z"/><path class="cls-13" d="M168.88,395.87c0-.75.45-1.05,1-.68a2.69,2.69,0,0,1,1,2c0,.74-.45,1.05-1,.67A2.64,2.64,0,0,1,168.88,395.87Z"/><path class="cls-13" d="M171.88,393.86c0-.74.45-1,1-.67a2.7,2.7,0,0,1,1,2c0,.73-.45,1-1,.66A2.68,2.68,0,0,1,171.88,393.86Z"/><path class="cls-13" d="M174.88,392.86c0-.74.45-1,1-.67a2.71,2.71,0,0,1,1,2c0,.75-.45,1.05-1,.67A2.64,2.64,0,0,1,174.88,392.86Z"/><path class="cls-13" d="M177.88,390.86c0-.74.45-1,1-.67a2.72,2.72,0,0,1,1,2c0,.73-.45,1-1,.66A2.68,2.68,0,0,1,177.88,390.86Z"/><path class="cls-13" d="M179.88,388.86c0-.74.45-1,1-.67a2.7,2.7,0,0,1,1,2c0,.73-.45,1-1,.66A2.64,2.64,0,0,1,179.88,388.86Z"/><path class="cls-13" d="M182.88,387.86c0-.74.45-1,1-.67a2.71,2.71,0,0,1,1,2c0,.75-.45,1.05-1,.67A2.68,2.68,0,0,1,182.88,387.86Z"/><path class="cls-13" d="M185.88,385.86c0-.74.45-1,1-.67a2.7,2.7,0,0,1,1,2c0,.73-.45,1-1,.66A2.68,2.68,0,0,1,185.88,385.86Z"/><path class="cls-13" d="M188.88,384.86c0-.74.45-1,1-.67a2.7,2.7,0,0,1,1,2c0,.73-.45,1-1,.66A2.68,2.68,0,0,1,188.88,384.86Z"/><path class="cls-13" d="M190.88,382.86c0-.74.45-1,1-.67a2.7,2.7,0,0,1,1,2c0,.73-.45,1-1,.66A2.68,2.68,0,0,1,190.88,382.86Z"/><path class="cls-13" d="M193.88,381.86c0-.74.45-1,1-.67a2.7,2.7,0,0,1,1,2c0,.73-.45,1-1,.66A2.68,2.68,0,0,1,193.88,381.86Z"/><path class="cls-13" d="M196.88,379.86c0-.74.45-1,1-.67a2.72,2.72,0,0,1,1,2c0,.73-.45,1-1,.66A2.64,2.64,0,0,1,196.88,379.86Z"/><path class="cls-13" d="M199.88,377.86c0-.74.45-1,1-.67a2.74,2.74,0,0,1,1,2c0,.73-.45,1-1,.66A2.64,2.64,0,0,1,199.88,377.86Z"/><path class="cls-13" d="M155.88,396.86c0-.74.45-1,1-.67a2.72,2.72,0,0,1,1,2c0,.73-.45,1-1,.66A2.68,2.68,0,0,1,155.88,396.86Z"/><path class="cls-13" d="M157.88,395.86c0-.74.45-1,1-.67a2.72,2.72,0,0,1,1,2c0,.73-.45,1-1,.66A2.68,2.68,0,0,1,157.88,395.86Z"/><path class="cls-13" d="M160.88,393.86c0-.74.45-1,1-.67a2.7,2.7,0,0,1,1,2c0,.73-.45,1-1,.66A2.66,2.66,0,0,1,160.88,393.86Z"/><path class="cls-13" d="M163.88,392.86c0-.74.45-1,1-.67a2.7,2.7,0,0,1,1,2c0,.73-.45,1-1,.66A2.68,2.68,0,0,1,163.88,392.86Z"/><path class="cls-13" d="M166.88,390.86c0-.74.45-1,1-.67a2.7,2.7,0,0,1,1,2c0,.73-.45,1-1,.66A2.66,2.66,0,0,1,166.88,390.86Z"/><path class="cls-13" d="M168.88,388.86c0-.74.45-1,1-.67a2.7,2.7,0,0,1,1,2c0,.73-.45,1-1,.66A2.68,2.68,0,0,1,168.88,388.86Z"/><path class="cls-13" d="M171.88,387.86c0-.74.45-1,1-.67a2.7,2.7,0,0,1,1,2c0,.73-.45,1-1,.66A2.66,2.66,0,0,1,171.88,387.86Z"/><path class="cls-13" d="M174.88,385.86c0-.74.45-1,1-.67a2.7,2.7,0,0,1,1,2c0,.73-.45,1-1,.66A2.68,2.68,0,0,1,174.88,385.86Z"/><path class="cls-13" d="M177.88,384.86c0-.74.45-1,1-.67a2.7,2.7,0,0,1,1,2c0,.73-.45,1-1,.66A2.66,2.66,0,0,1,177.88,384.86Z"/><path class="cls-13" d="M179.88,382.86c0-.74.45-1,1-.67a2.72,2.72,0,0,1,1,2c0,.73-.45,1-1,.66A2.68,2.68,0,0,1,179.88,382.86Z"/><path class="cls-13" d="M182.88,381.86c0-.74.45-1,1-.67a2.72,2.72,0,0,1,1,2c0,.73-.45,1-1,.66A2.66,2.66,0,0,1,182.88,381.86Z"/><path class="cls-13" d="M185.88,379.86c0-.74.45-1,1-.67a2.7,2.7,0,0,1,1,2c0,.73-.45,1-1,.66A2.68,2.68,0,0,1,185.88,379.86Z"/><path class="cls-13" d="M188.88,377.86c0-.74.45-1,1-.67a2.72,2.72,0,0,1,1,2c0,.73-.45,1-1,.66A2.66,2.66,0,0,1,188.88,377.86Z"/><path class="cls-13" d="M190.88,376.86c0-.74.45-1,1-.67a2.7,2.7,0,0,1,1,2c0,.73-.45,1-1,.66A2.68,2.68,0,0,1,190.88,376.86Z"/><path class="cls-13" d="M193.88,374.86c0-.74.45-1,1-.67a2.7,2.7,0,0,1,1,2c0,.73-.45,1-1,.66A2.64,2.64,0,0,1,193.88,374.86Z"/><path class="cls-13" d="M196.88,373.86c0-.74.45-1,1-.67a2.72,2.72,0,0,1,1,2c0,.73-.45,1-1,.66A2.68,2.68,0,0,1,196.88,373.86Z"/><path class="cls-13" d="M199.88,371.86c0-.74.45-1,1-.67a2.74,2.74,0,0,1,1,2c0,.73-.45,1-1,.66A2.62,2.62,0,0,1,199.88,371.86Z"/><path class="cls-13" d="M149.88,393.86c0-.74.45-1,1-.67a2.7,2.7,0,0,1,1,2c0,.73-.45,1-1,.66A2.66,2.66,0,0,1,149.88,393.86Z"/><path class="cls-13" d="M152.88,392.86c0-.74.45-1,1-.67a2.72,2.72,0,0,1,1,2c0,.73-.45,1-1,.66A2.68,2.68,0,0,1,152.88,392.86Z"/><path class="cls-13" d="M155.88,390.86c0-.74.45-1,1-.67a2.7,2.7,0,0,1,1,2c0,.73-.45,1-1,.66A2.64,2.64,0,0,1,155.88,390.86Z"/><path class="cls-13" d="M157.88,388.86c0-.74.45-1,1-.67a2.72,2.72,0,0,1,1,2c0,.73-.45,1-1,.66A2.68,2.68,0,0,1,157.88,388.86Z"/><path class="cls-13" d="M160.88,387.86c0-.74.45-1,1-.67a2.72,2.72,0,0,1,1,2c0,.73-.45,1-1,.66A2.64,2.64,0,0,1,160.88,387.86Z"/><path class="cls-13" d="M163.88,385.86c0-.74.45-1,1-.67a2.7,2.7,0,0,1,1,2c0,.73-.45,1-1,.66A2.68,2.68,0,0,1,163.88,385.86Z"/><path class="cls-13" d="M166.88,384.86c0-.74.45-1,1-.67a2.71,2.71,0,0,1,1,2c0,.75-.45,1.05-1,.67A2.64,2.64,0,0,1,166.88,384.86Z"/><path class="cls-13" d="M168.88,382.86c0-.74.45-1,1-.67a2.7,2.7,0,0,1,1,2c0,.73-.45,1-1,.66A2.68,2.68,0,0,1,168.88,382.86Z"/><path class="cls-13" d="M171.88,381.86c0-.74.45-1,1-.67a2.7,2.7,0,0,1,1,2c0,.73-.45,1-1,.66A2.64,2.64,0,0,1,171.88,381.86Z"/><path class="cls-13" d="M174.88,379.86c0-.74.45-1,1-.67a2.71,2.71,0,0,1,1,2c0,.75-.45,1.05-1,.67A2.68,2.68,0,0,1,174.88,379.86Z"/><path class="cls-13" d="M177.88,377.86c0-.74.45-1,1-.67a2.72,2.72,0,0,1,1,2c0,.73-.45,1-1,.66A2.64,2.64,0,0,1,177.88,377.86Z"/><path class="cls-13" d="M179.88,376.86c0-.74.45-1,1-.67a2.7,2.7,0,0,1,1,2c0,.73-.45,1-1,.66A2.68,2.68,0,0,1,179.88,376.86Z"/><path class="cls-13" d="M182.88,374.86c0-.74.45-1,1-.67a2.71,2.71,0,0,1,1,2c0,.75-.45,1.05-1,.67A2.64,2.64,0,0,1,182.88,374.86Z"/><path class="cls-13" d="M185.88,373.86c0-.74.45-1,1-.67a2.7,2.7,0,0,1,1,2c0,.73-.45,1-1,.66A2.68,2.68,0,0,1,185.88,373.86Z"/><path class="cls-13" d="M188.88,371.86c0-.74.45-1,1-.67a2.7,2.7,0,0,1,1,2c0,.73-.45,1-1,.66A2.64,2.64,0,0,1,188.88,371.86Z"/><path class="cls-13" d="M190.88,369.86c0-.74.45-1,1-.67a2.71,2.71,0,0,1,1,2c0,.75-.45,1.05-1,.67A2.68,2.68,0,0,1,190.88,369.86Z"/><path class="cls-13" d="M193.88,368.86c0-.74.45-1,1-.67a2.7,2.7,0,0,1,1,2c0,.73-.45,1-1,.66A2.68,2.68,0,0,1,193.88,368.86Z"/><path class="cls-13" d="M196.88,366.86c0-.74.45-1,1-.67a2.69,2.69,0,0,1,1,2c0,.75-.45,1.05-1,.67A2.66,2.66,0,0,1,196.88,366.86Z"/><path class="cls-13" d="M199.88,365.86c0-.74.45-1,1-.67a2.74,2.74,0,0,1,1,2c0,.73-.45,1-1,.66A2.65,2.65,0,0,1,199.88,365.86Z"/><path class="cls-13" d="M149.88,387.86c0-.74.45-1,1-.67a2.7,2.7,0,0,1,1,2c0,.73-.45,1-1,.66A2.68,2.68,0,0,1,149.88,387.86Z"/><path class="cls-13" d="M152.88,385.86c0-.74.45-1,1-.67a2.71,2.71,0,0,1,1,2c0,.75-.45,1.05-1,.67A2.66,2.66,0,0,1,152.88,385.86Z"/><path class="cls-13" d="M155.88,384.86c0-.74.45-1,1-.67a2.72,2.72,0,0,1,1,2c0,.73-.45,1-1,.66A2.68,2.68,0,0,1,155.88,384.86Z"/><path class="cls-13" d="M157.88,382.86c0-.74.45-1,1-.67a2.7,2.7,0,0,1,1,2c0,.73-.45,1-1,.66A2.68,2.68,0,0,1,157.88,382.86Z"/><path class="cls-13" d="M160.88,380.86c0-.74.45-1,1-.67a2.71,2.71,0,0,1,1,2c0,.75-.45,1.05-1,.67A2.64,2.64,0,0,1,160.88,380.86Z"/><path class="cls-13" d="M163.88,379.86c0-.74.45-1,1-.67a2.7,2.7,0,0,1,1,2c0,.73-.45,1-1,.66A2.68,2.68,0,0,1,163.88,379.86Z"/><path class="cls-13" d="M166.88,377.86c0-.74.45-1,1-.67a2.7,2.7,0,0,1,1,2c0,.73-.45,1-1,.66A2.68,2.68,0,0,1,166.88,377.86Z"/><path class="cls-13" d="M168.88,376.86c0-.74.45-1,1-.67a2.69,2.69,0,0,1,1,2c0,.75-.45,1-1,.68A2.72,2.72,0,0,1,168.88,376.86Z"/><path class="cls-13" d="M171.88,374.86c0-.74.45-1,1-.67a2.7,2.7,0,0,1,1,2c0,.73-.45,1-1,.66A2.68,2.68,0,0,1,171.88,374.86Z"/><path class="cls-13" d="M174.88,373.86c0-.74.45-1,1-.67a2.72,2.72,0,0,1,1,2c0,.73-.45,1-1,.66A2.66,2.66,0,0,1,174.88,373.86Z"/><path class="cls-13" d="M177.88,371.86c0-.74.45-1,1-.67a2.72,2.72,0,0,1,1,2c0,.73-.45,1-1,.66A2.68,2.68,0,0,1,177.88,371.86Z"/><path class="cls-13" d="M179.88,369.86c0-.74.45-1,1-.67a2.7,2.7,0,0,1,1,2c0,.73-.45,1-1,.66A2.66,2.66,0,0,1,179.88,369.86Z"/><path class="cls-13" d="M182.88,368.86c0-.74.45-1,1-.67a2.7,2.7,0,0,1,1,2c0,.73-.45,1-1,.66A2.68,2.68,0,0,1,182.88,368.86Z"/><path class="cls-13" d="M185.88,366.86c0-.74.45-1,1-.67a2.72,2.72,0,0,1,1,2c0,.73-.45,1-1,.66A2.64,2.64,0,0,1,185.88,366.86Z"/><path class="cls-13" d="M188.88,365.86c0-.74.45-1,1-.67a2.7,2.7,0,0,1,1,2c0,.73-.45,1-1,.66A2.68,2.68,0,0,1,188.88,365.86Z"/><path class="cls-13" d="M190.88,363.86c0-.74.45-1,1-.67a2.72,2.72,0,0,1,1,2c0,.73-.45,1-1,.66A2.64,2.64,0,0,1,190.88,363.86Z"/><path class="cls-13" d="M193.88,362.86c0-.74.45-1,1-.67a2.7,2.7,0,0,1,1,2c0,.73-.45,1-1,.66A2.68,2.68,0,0,1,193.88,362.86Z"/><path class="cls-13" d="M196.88,360.86c0-.74.45-1,1-.67a2.7,2.7,0,0,1,1,2c0,.73-.45,1-1,.66A2.64,2.64,0,0,1,196.88,360.86Z"/><path class="cls-13" d="M199.88,358.86c0-.74.45-1,1-.67a2.74,2.74,0,0,1,1,2c0,.73-.45,1-1,.66A2.65,2.65,0,0,1,199.88,358.86Z"/><path class="cls-13" d="M149.88,380.86c0-.74.45-1,1-.67a2.7,2.7,0,0,1,1,2c0,.73-.45,1-1,.66A2.68,2.68,0,0,1,149.88,380.86Z"/><path class="cls-13" d="M152.88,379.86c0-.74.45-1,1-.67a2.72,2.72,0,0,1,1,2c0,.73-.45,1-1,.66A2.66,2.66,0,0,1,152.88,379.86Z"/><path class="cls-13" d="M155.88,377.86c0-.74.45-1,1-.67a2.7,2.7,0,0,1,1,2c0,.73-.45,1-1,.66A2.68,2.68,0,0,1,155.88,377.86Z"/><path class="cls-13" d="M157.88,376.86c0-.74.45-1,1-.67a2.72,2.72,0,0,1,1,2c0,.73-.45,1-1,.66A2.64,2.64,0,0,1,157.88,376.86Z"/><path class="cls-13" d="M160.88,374.86c0-.74.45-1,1-.67a2.72,2.72,0,0,1,1,2c0,.73-.45,1-1,.66A2.68,2.68,0,0,1,160.88,374.86Z"/><path class="cls-13" d="M163.88,373.86c0-.74.45-1,1-.67a2.72,2.72,0,0,1,1,2c0,.73-.45,1-1,.66A2.64,2.64,0,0,1,163.88,373.86Z"/><path class="cls-13" d="M166.88,371.86c0-.74.45-1,1-.67a2.72,2.72,0,0,1,1,2c0,.73-.45,1-1,.66A2.68,2.68,0,0,1,166.88,371.86Z"/><path class="cls-13" d="M168.88,369.86c0-.74.45-1,1-.67a2.7,2.7,0,0,1,1,2c0,.73-.45,1-1,.66A2.64,2.64,0,0,1,168.88,369.86Z"/><path class="cls-13" d="M171.88,368.86c0-.74.45-1,1-.67a2.7,2.7,0,0,1,1,2c0,.73-.45,1-1,.66A2.68,2.68,0,0,1,171.88,368.86Z"/><path class="cls-13" d="M174.88,366.86c0-.74.45-1,1-.67a2.71,2.71,0,0,1,1,2c0,.75-.45,1.05-1,.67A2.64,2.64,0,0,1,174.88,366.86Z"/><path class="cls-13" d="M177.88,365.86c0-.74.45-1,1-.67a2.72,2.72,0,0,1,1,2c0,.73-.45,1-1,.66A2.68,2.68,0,0,1,177.88,365.86Z"/><path class="cls-13" d="M179.88,363.86c0-.74.45-1,1-.67a2.72,2.72,0,0,1,1,2c0,.73-.45,1-1,.66A2.68,2.68,0,0,1,179.88,363.86Z"/><path class="cls-13" d="M182.88,361.86c0-.74.45-1,1-.67a2.72,2.72,0,0,1,1,2c0,.73-.45,1-1,.66A2.68,2.68,0,0,1,182.88,361.86Z"/><path class="cls-13" d="M185.88,360.86c0-.74.45-1,1-.67a2.7,2.7,0,0,1,1,2c0,.73-.45,1-1,.66A2.68,2.68,0,0,1,185.88,360.86Z"/><path class="cls-13" d="M188.88,358.86c0-.74.45-1,1-.67a2.69,2.69,0,0,1,1,2c0,.75-.45,1.05-1,.67A2.68,2.68,0,0,1,188.88,358.86Z"/><path class="cls-13" d="M190.88,357.86c0-.74.45-1,1-.67a2.72,2.72,0,0,1,1,2c0,.73-.45,1-1,.66A2.68,2.68,0,0,1,190.88,357.86Z"/><path class="cls-13" d="M193.88,355.86c0-.74.45-1,1-.67a2.7,2.7,0,0,1,1,2c0,.73-.45,1-1,.66A2.66,2.66,0,0,1,193.88,355.86Z"/><path class="cls-13" d="M196.88,354.86c0-.74.45-1,1-.67a2.71,2.71,0,0,1,1,2c0,.75-.45,1.05-1,.67A2.68,2.68,0,0,1,196.88,354.86Z"/><path class="cls-13" d="M149.88,374.86c0-.74.45-1,1-.67a2.7,2.7,0,0,1,1,2c0,.73-.45,1-1,.66A2.68,2.68,0,0,1,149.88,374.86Z"/><path class="cls-13" d="M152.88,372.86c0-.74.45-1,1-.67a2.71,2.71,0,0,1,1,2c0,.75-.45,1.05-1,.67A2.68,2.68,0,0,1,152.88,372.86Z"/><path class="cls-13" d="M155.88,371.86c0-.74.45-1,1-.67a2.72,2.72,0,0,1,1,2c0,.73-.45,1-1,.66A2.66,2.66,0,0,1,155.88,371.86Z"/><path class="cls-13" d="M157.88,369.86c0-.74.45-1,1-.67a2.69,2.69,0,0,1,1,2c0,.75-.45,1.05-1,.67A2.68,2.68,0,0,1,157.88,369.86Z"/><path class="cls-13" d="M160.88,368.86c0-.74.45-1,1-.67a2.71,2.71,0,0,1,1,2c0,.75-.45,1.05-1,.67A2.66,2.66,0,0,1,160.88,368.86Z"/><path class="cls-13" d="M163.88,366.86c0-.74.45-1,1-.67a2.7,2.7,0,0,1,1,2c0,.73-.45,1-1,.66A2.68,2.68,0,0,1,163.88,366.86Z"/><path class="cls-13" d="M166.88,365.86c0-.74.45-1,1-.67a2.7,2.7,0,0,1,1,2c0,.73-.45,1-1,.66A2.66,2.66,0,0,1,166.88,365.86Z"/><path class="cls-13" d="M168.88,363.86c0-.74.45-1,1-.67a2.71,2.71,0,0,1,1,2c0,.75-.45,1.05-1,.67A2.68,2.68,0,0,1,168.88,363.86Z"/><path class="cls-13" d="M171.88,361.86c0-.74.45-1,1-.67a2.7,2.7,0,0,1,1,2c0,.73-.45,1-1,.66A2.66,2.66,0,0,1,171.88,361.86Z"/><path class="cls-13" d="M174.88,360.86c0-.74.45-1,1-.67a2.7,2.7,0,0,1,1,2c0,.73-.45,1-1,.66A2.68,2.68,0,0,1,174.88,360.86Z"/><path class="cls-13" d="M177.88,358.86c0-.74.45-1,1-.67a2.72,2.72,0,0,1,1,2c0,.73-.45,1-1,.66A2.66,2.66,0,0,1,177.88,358.86Z"/><path class="cls-13" d="M179.88,357.86c0-.74.45-1,1-.67a2.7,2.7,0,0,1,1,2c0,.73-.45,1-1,.66A2.68,2.68,0,0,1,179.88,357.86Z"/><path class="cls-13" d="M182.88,355.86c0-.74.45-1,1-.67a2.7,2.7,0,0,1,1,2c0,.73-.45,1-1,.66A2.66,2.66,0,0,1,182.88,355.86Z"/><path class="cls-13" d="M185.88,354.86c0-.74.45-1,1-.67a2.72,2.72,0,0,1,1,2c0,.73-.45,1-1,.66A2.68,2.68,0,0,1,185.88,354.86Z"/><path class="cls-13" d="M188.88,352.86c0-.74.45-1,1-.67a2.7,2.7,0,0,1,1,2c0,.73-.45,1-1,.66A2.64,2.64,0,0,1,188.88,352.86Z"/><path class="cls-13" d="M190.88,350.86c0-.74.45-1,1-.67a2.71,2.71,0,0,1,1,2c0,.75-.45,1.05-1,.67A2.68,2.68,0,0,1,190.88,350.86Z"/><path class="cls-13" d="M149.88,368.86c0-.74.45-1,1-.67a2.7,2.7,0,0,1,1,2c0,.73-.45,1-1,.66A2.64,2.64,0,0,1,149.88,368.86Z"/><path class="cls-13" d="M152.88,366.86c0-.74.45-1,1-.67a2.72,2.72,0,0,1,1,2c0,.73-.45,1-1,.66A2.68,2.68,0,0,1,152.88,366.86Z"/><path class="cls-13" d="M155.88,365.86c0-.74.45-1,1-.67a2.72,2.72,0,0,1,1,2c0,.73-.45,1-1,.66A2.64,2.64,0,0,1,155.88,365.86Z"/><path class="cls-13" d="M157.88,363.86c0-.74.45-1,1-.67a2.7,2.7,0,0,1,1,2c0,.73-.45,1-1,.66A2.68,2.68,0,0,1,157.88,363.86Z"/><path class="cls-13" d="M160.88,361.86c0-.74.45-1,1-.67a2.7,2.7,0,0,1,1,2c0,.73-.45,1-1,.66A2.64,2.64,0,0,1,160.88,361.86Z"/><path class="cls-13" d="M163.88,360.86c0-.74.45-1,1-.67a2.7,2.7,0,0,1,1,2c0,.73-.45,1-1,.66A2.68,2.68,0,0,1,163.88,360.86Z"/><path class="cls-13" d="M166.88,358.86c0-.74.45-1,1-.67a2.7,2.7,0,0,1,1,2c0,.73-.45,1-1,.66A2.64,2.64,0,0,1,166.88,358.86Z"/><path class="cls-13" d="M168.88,357.86c0-.74.45-1,1-.67a2.72,2.72,0,0,1,1,2c0,.73-.45,1-1,.66A2.68,2.68,0,0,1,168.88,357.86Z"/><path class="cls-13" d="M171.88,355.86c0-.74.45-1,1-.67a2.69,2.69,0,0,1,1,2c0,.75-.45,1.05-1,.67A2.64,2.64,0,0,1,171.88,355.86Z"/><path class="cls-13" d="M174.88,354.86c0-.74.45-1,1-.67a2.7,2.7,0,0,1,1,2c0,.73-.45,1-1,.66A2.68,2.68,0,0,1,174.88,354.86Z"/><path class="cls-13" d="M177.88,352.86c0-.74.45-1,1-.67a2.72,2.72,0,0,1,1,2c0,.73-.45,1-1,.66A2.64,2.64,0,0,1,177.88,352.86Z"/><path class="cls-13" d="M179.88,350.86c0-.74.45-1,1-.67a2.7,2.7,0,0,1,1,2c0,.73-.45,1-1,.66A2.68,2.68,0,0,1,179.88,350.86Z"/><path class="cls-13" d="M182.88,349.86c0-.74.45-1,1-.67a2.7,2.7,0,0,1,1,2c0,.73-.45,1-1,.66A2.68,2.68,0,0,1,182.88,349.86Z"/><path class="cls-13" d="M185.88,347.86c0-.74.45-1,1-.67a2.7,2.7,0,0,1,1,2c0,.73-.45,1-1,.66A2.66,2.66,0,0,1,185.88,347.86Z"/><path class="cls-13" d="M149.88,361.86c0-.74.45-1,1-.67a2.7,2.7,0,0,1,1,2c0,.73-.45,1-1,.66A2.68,2.68,0,0,1,149.88,361.86Z"/><path class="cls-13" d="M152.88,360.86c0-.74.45-1,1-.67a2.71,2.71,0,0,1,1,2c0,.75-.45,1.05-1,.67A2.66,2.66,0,0,1,152.88,360.86Z"/><path class="cls-13" d="M155.88,358.86c0-.74.45-1,1-.67a2.72,2.72,0,0,1,1,2c0,.73-.45,1-1,.66A2.68,2.68,0,0,1,155.88,358.86Z"/><path class="cls-13" d="M157.88,357.86c0-.74.45-1,1-.67a2.7,2.7,0,0,1,1,2c0,.73-.45,1-1,.66A2.66,2.66,0,0,1,157.88,357.86Z"/><path class="cls-13" d="M160.88,355.86c0-.74.45-1,1-.67a2.71,2.71,0,0,1,1,2c0,.75-.45,1.05-1,.67A2.68,2.68,0,0,1,160.88,355.86Z"/><path class="cls-13" d="M163.88,353.86c0-.74.45-1,1-.67a2.7,2.7,0,0,1,1,2c0,.73-.45,1-1,.66A2.66,2.66,0,0,1,163.88,353.86Z"/><path class="cls-13" d="M166.88,352.86c0-.74.45-1,1-.67a2.69,2.69,0,0,1,1,2c0,.75-.45,1.05-1,.67A2.68,2.68,0,0,1,166.88,352.86Z"/><path class="cls-13" d="M168.88,350.86c0-.74.45-1,1-.67a2.72,2.72,0,0,1,1,2c0,.73-.45,1-1,.66A2.64,2.64,0,0,1,168.88,350.86Z"/><path class="cls-13" d="M171.88,349.86c0-.74.45-1,1-.67a2.7,2.7,0,0,1,1,2c0,.73-.45,1-1,.66A2.68,2.68,0,0,1,171.88,349.86Z"/><path class="cls-13" d="M174.88,347.86c0-.74.45-1,1-.67a2.72,2.72,0,0,1,1,2c0,.73-.45,1-1,.66A2.64,2.64,0,0,1,174.88,347.86Z"/><path class="cls-13" d="M177.88,346.86c0-.74.45-1,1-.67a2.72,2.72,0,0,1,1,2c0,.73-.45,1-1,.66A2.68,2.68,0,0,1,177.88,346.86Z"/><path class="cls-13" d="M179.88,344.86c0-.74.45-1,1-.67a2.7,2.7,0,0,1,1,2c0,.73-.45,1-1,.66A2.64,2.64,0,0,1,179.88,344.86Z"/><path class="cls-13" d="M149.88,355.86c0-.74.45-1,1-.67a2.7,2.7,0,0,1,1,2c0,.73-.45,1-1,.66A2.68,2.68,0,0,1,149.88,355.86Z"/><path class="cls-13" d="M152.88,353.86c0-.74.45-1,1-.67a2.7,2.7,0,0,1,1,2c0,.73-.45,1-1,.66A2.64,2.64,0,0,1,152.88,353.86Z"/><path class="cls-13" d="M155.88,352.86c0-.74.45-1,1-.67a2.71,2.71,0,0,1,1,2c0,.75-.45,1.05-1,.67A2.68,2.68,0,0,1,155.88,352.86Z"/><path class="cls-13" d="M157.88,350.86c0-.74.45-1,1-.67a2.7,2.7,0,0,1,1,2c0,.73-.45,1-1,.66A2.68,2.68,0,0,1,157.88,350.86Z"/><path class="cls-13" d="M160.88,349.86c0-.74.45-1,1-.67a2.7,2.7,0,0,1,1,2c0,.73-.45,1-1,.66A2.68,2.68,0,0,1,160.88,349.86Z"/><path class="cls-13" d="M163.88,347.86c0-.74.45-1,1-.67a2.72,2.72,0,0,1,1,2c0,.73-.45,1-1,.66A2.68,2.68,0,0,1,163.88,347.86Z"/><path class="cls-13" d="M166.88,346.86c0-.74.45-1,1-.67a2.7,2.7,0,0,1,1,2c0,.73-.45,1-1,.66A2.68,2.68,0,0,1,166.88,346.86Z"/><path class="cls-13" d="M168.88,344.86c0-.74.45-1,1-.67a2.72,2.72,0,0,1,1,2c0,.73-.45,1-1,.66A2.64,2.64,0,0,1,168.88,344.86Z"/><path class="cls-13" d="M171.88,342.86c0-.74.45-1,1-.67a2.72,2.72,0,0,1,1,2c0,.73-.45,1-1,.66A2.68,2.68,0,0,1,171.88,342.86Z"/><path class="cls-13" d="M174.88,341.86c0-.74.45-1,1-.67a2.69,2.69,0,0,1,1,2c0,.75-.45,1.05-1,.67A2.68,2.68,0,0,1,174.88,341.86Z"/><path class="cls-13" d="M149.88,349.86c0-.74.45-1,1-.67a2.69,2.69,0,0,1,1,2c0,.75-.45,1.05-1,.67A2.66,2.66,0,0,1,149.88,349.86Z"/><path class="cls-13" d="M152.88,347.86c0-.74.45-1,1-.67a2.7,2.7,0,0,1,1,2c0,.73-.45,1-1,.66A2.68,2.68,0,0,1,152.88,347.86Z"/><path class="cls-13" d="M155.88,345.86c0-.74.45-1,1-.67a2.72,2.72,0,0,1,1,2c0,.73-.45,1-1,.66A2.66,2.66,0,0,1,155.88,345.86Z"/><path class="cls-13" d="M157.88,344.86c0-.74.45-1,1-.67a2.7,2.7,0,0,1,1,2c0,.73-.45,1-1,.66A2.68,2.68,0,0,1,157.88,344.86Z"/><path class="cls-13" d="M160.88,342.86c0-.74.45-1,1-.67a2.7,2.7,0,0,1,1,2c0,.73-.45,1-1,.66A2.66,2.66,0,0,1,160.88,342.86Z"/><path class="cls-13" d="M163.88,341.86c0-.74.45-1,1-.67a2.7,2.7,0,0,1,1,2c0,.73-.45,1-1,.66A2.68,2.68,0,0,1,163.88,341.86Z"/><path class="cls-13" d="M166.88,339.86c0-.74.45-1,1-.67a2.72,2.72,0,0,1,1,2c0,.73-.45,1-1,.66A2.64,2.64,0,0,1,166.88,339.86Z"/><path class="cls-13" d="M168.88,338.86c0-.74.45-1,1-.67a2.72,2.72,0,0,1,1,2c0,.73-.45,1-1,.66A2.68,2.68,0,0,1,168.88,338.86Z"/><path class="cls-13" d="M149.88,342.86c0-.74.45-1,1-.67a2.7,2.7,0,0,1,1,2c0,.73-.45,1-1,.66A2.64,2.64,0,0,1,149.88,342.86Z"/><path class="cls-13" d="M152.88,341.86c0-.74.45-1,1-.67a2.7,2.7,0,0,1,1,2c0,.73-.45,1-1,.66A2.68,2.68,0,0,1,152.88,341.86Z"/><path class="cls-13" d="M155.88,339.86c0-.74.45-1,1-.67a2.71,2.71,0,0,1,1,2c0,.75-.45,1.05-1,.67A2.64,2.64,0,0,1,155.88,339.86Z"/><path class="cls-13" d="M157.88,338.86c0-.74.45-1,1-.67a2.7,2.7,0,0,1,1,2c0,.73-.45,1-1,.66A2.68,2.68,0,0,1,157.88,338.86Z"/><path class="cls-13" d="M160.88,336.86c0-.74.45-1,1-.67a2.7,2.7,0,0,1,1,2c0,.73-.45,1-1,.66A2.64,2.64,0,0,1,160.88,336.86Z"/><path class="cls-13" d="M163.88,334.86c0-.74.45-1,1-.67a2.72,2.72,0,0,1,1,2c0,.73-.45,1-1,.66A2.68,2.68,0,0,1,163.88,334.86Z"/><path class="cls-13" d="M149.88,336.86c0-.74.45-1,1-.67a2.72,2.72,0,0,1,1,2c0,.73-.45,1-1,.66A2.68,2.68,0,0,1,149.88,336.86Z"/><path class="cls-13" d="M152.88,334.86c0-.74.45-1,1-.67a2.69,2.69,0,0,1,1,2c0,.75-.45,1.05-1,.67A2.66,2.66,0,0,1,152.88,334.86Z"/><path class="cls-13" d="M155.88,333.86c0-.74.45-1,1-.67a2.7,2.7,0,0,1,1,2c0,.73-.45,1-1,.66A2.68,2.68,0,0,1,155.88,333.86Z"/><path class="cls-13" d="M157.88,331.86c0-.74.45-1,1-.67a2.7,2.7,0,0,1,1,2c0,.73-.45,1-1,.66A2.64,2.64,0,0,1,157.88,331.86Z"/><path class="cls-13" d="M149.88,330.86c0-.74.45-1,1-.67a2.72,2.72,0,0,1,1,2c0,.73-.45,1-1,.66A2.68,2.68,0,0,1,149.88,330.86Z"/><path class="cls-13" d="M152.88,328.86c0-.74.45-1,1-.67a2.72,2.72,0,0,1,1,2c0,.73-.45,1-1,.66A2.68,2.68,0,0,1,152.88,328.86Z"/><path class="cls-18" d="M289.88,437l-2-41.72,2-1.28Z"/><path class="cls-56" d="M592.55,316l-4,10.91s-4.74,2.57-10.63,5.09c11.29,0,13-.8,15.1-1.91a72.58,72.58,0,0,0,6.76-5.6C601.06,323.15,592.55,316,592.55,316Z"/><path class="cls-2" d="M545.14,304.66c-2,1.17-3.22,2.39-3.26,3.51s1.28,2.38,3.53,3.19c9.26,3.57,14.61,6.81,24.54,14.15,4.31,3.37,11.37,4.72,15.69,2.27l5-2.87a5.86,5.86,0,0,0,3.2-5.05,7.15,7.15,0,0,0-3-5.77c-9.46-7.57-15.82-11-24.71-14.36-4.28-1.53-11.64-.41-16,2.06Z"/><path class="cls-57" d="M545.4,311.28c9.26,3.63,14.62,6.91,24.54,14.37,4.32,3.42,11.37,4.79,15.7,2.3l5-2.91a6,6,0,0,0,3.2-5.13v2.58a3.53,3.53,0,0,1,0,.46V323h0c-.13,1.54-1.19,3.05-3.21,4.22l-5,2.91a17.3,17.3,0,0,1-15.65,0l-24.86-14.41c-2.19-1.27-3.27-2.93-3.24-4.59V308C541.83,309.31,543.15,310.45,545.4,311.28Z"/><path class="cls-13" d="M561.12,308.61c1-.48,1-1.18,0-1.47a6,6,0,0,0-3.59.49c-.89.43-1,1,0,1.24A5.74,5.74,0,0,0,561.12,308.61Z"/><path class="cls-58" d="M522.23,362.34,516.55,359c2.2,1.29,2.2,3.38,0,4.67l-99.67,58.06a8.81,8.81,0,0,1-8,0l5.57,3.24-1.77,1h5.69a8.3,8.3,0,0,0,4.2-1L522.23,367C524.43,365.73,524.43,363.63,522.23,362.34Z"/><path class="cls-59" d="M516.24,364.34l-99.36,57.47a8.9,8.9,0,0,1-8,0l-40.37-23.36a2.88,2.88,0,0,1-1.64-2.17s0,3.14,0,3.14a2.81,2.81,0,0,0,1.65,2.31l40.37,23.35a8.83,8.83,0,0,0,8,0l99.36-57.46a2.7,2.7,0,0,0,1.62-2.52s0-3.07,0-3.07A2.82,2.82,0,0,1,516.24,364.34Z"/><path class="cls-60" d="M517.88,362s0,.05,0,.08S517.89,362,517.88,362Z"/><path class="cls-2" d="M408.91,422.07a8.75,8.75,0,0,0,8,0l99.36-57.9c2.19-1.28,2.19-3.37,0-4.65L475.87,336a8.79,8.79,0,0,0-8,0l-99.35,57.9c-2.2,1.28-2.2,3.38,0,4.65Z"/><path class="cls-61" d="M470.88,345l5-3-5-3-5,3Z"/><path class="cls-61" d="M461.88,350l5-3-5-3-5,3Z"/><path class="cls-61" d="M453.89,355l5-3-5-3-5,3Z"/><path class="cls-61" d="M444.88,360l5-3-5-3-5,3Z"/><path class="cls-61" d="M436.88,365l5-3-5-3-5,3Z"/><path class="cls-61" d="M427.89,370l5-3-5-3-5,3Z"/><path class="cls-61" d="M419.88,375l5-3-5-3-5,3Z"/><path class="cls-61" d="M410.88,379l5-3-5-3-5,3Z"/><path class="cls-61" d="M402.88,384l5-3-5-3-5,3Z"/><path class="cls-61" d="M393.89,389l5-3-5-3-5,3Z"/><path class="cls-61" d="M385.88,394l5-3-5-3-5,3Z"/><path class="cls-61" d="M376.88,399l5-3-5-3-5,3Z"/><path class="cls-61" d="M474.89,352l9-5.14-5-2.86-9,5.14Z"/><path class="cls-61" d="M480.05,359l12.83-7.13L487.71,349l-12.83,7.12Z"/><path class="cls-61" d="M484.92,366l16-9.11-5-2.89-16,9.12Z"/><path class="cls-61" d="M501.75,368l9.13-5.13L504,359l-9.13,5.14Z"/><path class="cls-61" d="M489.76,375l9.12-5.13L492,366l-9.13,5.14Z"/><path class="cls-61" d="M476.76,382l9.12-5.14L479,373l-9.13,5.13Z"/><path class="cls-61" d="M433.76,407l9.12-5.13L436,398l-9.13,5.14Z"/><path class="cls-61" d="M412.82,420l18.06-10.11L424,406l-18.07,10.12Z"/><path class="cls-61" d="M445.7,400l27.18-16-6.82-4-27.18,16Z"/><path class="cls-61" d="M463.73,358l7.15-4.17L466,351l-7.15,4.17Z"/><path class="cls-61" d="M468.73,365l7.15-4.16L471,358l-7.14,4.17Z"/><path class="cls-61" d="M473.73,372l7.15-4.16L476,365l-7.14,4.17Z"/><path class="cls-61" d="M462.73,378l7.15-4.16L465,371l-7.15,4.17Z"/><path class="cls-61" d="M451.73,385l7.15-4.17L454,378l-7.15,4.17Z"/><path class="cls-61" d="M440.73,391l7.15-4.16L443,384l-7.15,4.17Z"/><path class="cls-61" d="M429.74,397l7.14-4.16L432,390l-7.15,4.17Z"/><path class="cls-61" d="M418.74,404l7.14-4.16L421,397l-7.15,4.17Z"/><path class="cls-61" d="M402,414,415.88,406,410.81,403l-13.93,8.06Z"/><path class="cls-61" d="M457.73,371l7.15-4.16L460,364l-7.14,4.17Z"/><path class="cls-61" d="M446.73,378l7.15-4.16L449,371l-7.15,4.17Z"/><path class="cls-61" d="M435.73,384l7.15-4.16L438,377l-7.15,4.17Z"/><path class="cls-61" d="M424.73,390l7.15-4.16L427,383l-7.15,4.17Z"/><path class="cls-61" d="M413.74,397l7.14-4.16L416,390l-7.15,4.17Z"/><path class="cls-61" d="M393.85,409l17-10.06-5-2.94-17,10.07Z"/><path class="cls-61" d="M452.73,365l7.15-4.16L455,358l-7.14,4.17Z"/><path class="cls-61" d="M441.73,371l7.15-4.16L444,364l-7.14,4.17Z"/><path class="cls-61" d="M430.74,377l7.14-4.16L433,370l-7.15,4.17Z"/><path class="cls-61" d="M420.74,384l7.14-4.16L423,377l-7.15,4.17Z"/><path class="cls-61" d="M409.74,390l7.14-4.16L412,383l-7.15,4.17Z"/><path class="cls-61" d="M398.74,396l7.14-4.16L401,389l-7.15,4.17Z"/><path class="cls-61" d="M385,405l9.93-6-5.08-3-9.92,6Z"/><path class="cls-62" d="M655.3,251H622.88l20.58,12-20.58,12H655.3l20.58-12Z"/><path class="cls-28" d="M622.88,275l21-11.88V239l-21,11.88Z"/><path class="cls-29" d="M622.88,275l-21-11.88V239l21,11.88Z"/><path class="cls-6" d="M622.38,251l-20.5-12,20.5-12,20.5,12Z"/><path class="cls-63" d="M360.2,499.29a4.72,4.72,0,0,0-1.64-1.73l-9-5.21a1.63,1.63,0,0,0-1.64-.16l-46,26.54a1.63,1.63,0,0,1,1.64.16l9,5.21a4.89,4.89,0,0,1,1.64,1.73,4.73,4.73,0,0,1,.68,2.29v10.42a1.62,1.62,0,0,1-.68,1.49l46-26.54a1.62,1.62,0,0,0,.68-1.49V501.57A4.76,4.76,0,0,0,360.2,499.29Z"/><path class="cls-64" d="M360.2,478.29a4.72,4.72,0,0,0-1.64-1.73l-9-5.21a1.63,1.63,0,0,0-1.64-.16l-46,26.55a1.63,1.63,0,0,1,1.64.16l9,5.21a4.8,4.8,0,0,1,1.64,1.73,4.69,4.69,0,0,1,.68,2.27v10.43a1.62,1.62,0,0,1-.68,1.49l46-26.54a1.65,1.65,0,0,0,.68-1.5V480.57A4.73,4.73,0,0,0,360.2,478.29Z"/><path class="cls-65" d="M377.2,509.29a4.72,4.72,0,0,0-1.64-1.73l-9-5.21a1.63,1.63,0,0,0-1.64-.16l-46,26.54a1.63,1.63,0,0,1,1.64.16l9,5.21a4.8,4.8,0,0,1,1.64,1.73,4.73,4.73,0,0,1,.68,2.29v10.42a1.62,1.62,0,0,1-.68,1.49l46-26.54a1.62,1.62,0,0,0,.68-1.49V511.57A4.76,4.76,0,0,0,377.2,509.29Z"/><path class="cls-66" d="M395.2,519.29a4.72,4.72,0,0,0-1.64-1.73l-9-5.21a1.63,1.63,0,0,0-1.64-.16l-46,26.55a1.63,1.63,0,0,1,1.64.16l9,5.21a4.8,4.8,0,0,1,1.64,1.73,4.69,4.69,0,0,1,.68,2.27v10.43a1.62,1.62,0,0,1-.68,1.49l46-26.54a1.65,1.65,0,0,0,.68-1.5V521.57A4.69,4.69,0,0,0,395.2,519.29Z"/><path class="cls-67" d="M377.2,489.29a4.8,4.8,0,0,0-1.64-1.73l-9-5.21a1.63,1.63,0,0,0-1.64-.16l-46,26.55a1.59,1.59,0,0,1,1.64.16l9,5.21a5.13,5.13,0,0,1,2.32,4v10.42a1.62,1.62,0,0,1-.68,1.49l46-26.53a1.63,1.63,0,0,0,.68-1.5V491.58A4.79,4.79,0,0,0,377.2,489.29Z"/><path class="cls-67" d="M377.2,489.29a4.8,4.8,0,0,0-1.64-1.73l-9-5.21a1.63,1.63,0,0,0-1.64-.16l-46,26.55a1.59,1.59,0,0,1,1.64.16l9,5.21a5.13,5.13,0,0,1,2.32,4v10.42a1.62,1.62,0,0,1-.68,1.49l46-26.53a1.63,1.63,0,0,0,.68-1.5V491.58A4.79,4.79,0,0,0,377.2,489.29Z"/><path class="cls-68" d="M395.2,499.29a4.72,4.72,0,0,0-1.64-1.73l-9-5.21a1.63,1.63,0,0,0-1.64-.16l-46,26.54a1.63,1.63,0,0,1,1.64.16l9,5.21a4.89,4.89,0,0,1,1.64,1.73,4.73,4.73,0,0,1,.68,2.29v10.42a1.62,1.62,0,0,1-.68,1.49l46-26.54a1.62,1.62,0,0,0,.68-1.49V501.57A4.76,4.76,0,0,0,395.2,499.29Z"/><path class="cls-17" d="M314.88,507.74a4.79,4.79,0,0,0-.7-2.32,4.89,4.89,0,0,0-1.67-1.76l-9.25-5.31a1.71,1.71,0,0,0-1.68-.16,1.66,1.66,0,0,0-.7,1.52v10.62a4.83,4.83,0,0,0,.7,2.32,4.91,4.91,0,0,0,1.68,1.76l9.25,5.3a1.44,1.44,0,0,0,2.37-1.36Z"/><path class="cls-17" d="M332.88,517.75a4.76,4.76,0,0,0-.7-2.32,4.92,4.92,0,0,0-1.67-1.77l-9.25-5.31a1.71,1.71,0,0,0-1.68-.16,1.66,1.66,0,0,0-.7,1.52v10.61a5.22,5.22,0,0,0,2.38,4.09l9.25,5.3a1.44,1.44,0,0,0,2.37-1.36Z"/><path class="cls-17" d="M349.88,527.75a4.83,4.83,0,0,0-.7-2.33,4.89,4.89,0,0,0-1.67-1.76l-9.25-5.31a1.71,1.71,0,0,0-1.68-.16,1.66,1.66,0,0,0-.7,1.52v10.61a4.79,4.79,0,0,0,.7,2.32,4.86,4.86,0,0,0,1.68,1.77l9.25,5.3a1.44,1.44,0,0,0,2.37-1.36Z"/><path class="cls-17" d="M314.88,527.75a4.83,4.83,0,0,0-.7-2.33,4.89,4.89,0,0,0-1.67-1.76l-9.25-5.31a1.71,1.71,0,0,0-1.68-.16,1.66,1.66,0,0,0-.7,1.52v10.61a4.79,4.79,0,0,0,.7,2.32,4.86,4.86,0,0,0,1.68,1.77l9.25,5.3a1.44,1.44,0,0,0,2.37-1.36Z"/><path class="cls-17" d="M332.88,537.75a5.25,5.25,0,0,0-2.37-4.09l-9.25-5.31a1.71,1.71,0,0,0-1.68-.16,1.66,1.66,0,0,0-.7,1.52v10.62a5.22,5.22,0,0,0,2.38,4.08l9.25,5.3a1.44,1.44,0,0,0,2.37-1.36Z"/><path class="cls-17" d="M349.88,547.74a4.79,4.79,0,0,0-.7-2.32,4.89,4.89,0,0,0-1.67-1.76l-9.25-5.31a1.71,1.71,0,0,0-1.68-.16,1.66,1.66,0,0,0-.7,1.52v10.62a4.83,4.83,0,0,0,.7,2.32,4.91,4.91,0,0,0,1.68,1.76l9.25,5.3a1.44,1.44,0,0,0,2.37-1.36Z"/><path class="cls-69" d="M360.2,458.29a4.72,4.72,0,0,0-1.64-1.73l-9-5.21a1.63,1.63,0,0,0-1.64-.16l-46,26.54a1.63,1.63,0,0,1,1.64.16l9,5.21a4.89,4.89,0,0,1,1.64,1.73,4.73,4.73,0,0,1,.68,2.29v10.42a1.62,1.62,0,0,1-.68,1.49l46-26.54a1.62,1.62,0,0,0,.68-1.49V460.57A4.69,4.69,0,0,0,360.2,458.29Z"/><path class="cls-17" d="M332.88,497.74a4.79,4.79,0,0,0-.7-2.32,4.89,4.89,0,0,0-1.67-1.76l-9.25-5.31a1.71,1.71,0,0,0-1.68-.16,1.66,1.66,0,0,0-.7,1.52v10.62a5.22,5.22,0,0,0,2.38,4.08l9.25,5.3a1.44,1.44,0,0,0,2.37-1.36Z"/><path class="cls-70" d="M377.2,468.29a4.72,4.72,0,0,0-1.64-1.73l-9-5.21a1.63,1.63,0,0,0-1.64-.16l-46,26.54a1.63,1.63,0,0,1,1.64.16l9,5.21a4.8,4.8,0,0,1,1.64,1.73,4.73,4.73,0,0,1,.68,2.29v10.42a1.62,1.62,0,0,1-.68,1.49l46-26.54a1.62,1.62,0,0,0,.68-1.49V470.57A4.69,4.69,0,0,0,377.2,468.29Z"/><path class="cls-17" d="M349.88,507.74a4.79,4.79,0,0,0-.7-2.32,4.89,4.89,0,0,0-1.67-1.76l-9.25-5.31a1.71,1.71,0,0,0-1.68-.16,1.66,1.66,0,0,0-.7,1.52v10.62a4.83,4.83,0,0,0,.7,2.32,4.91,4.91,0,0,0,1.68,1.76l9.25,5.3a1.44,1.44,0,0,0,2.37-1.36Z"/><path class="cls-71" d="M395.2,478.29a4.72,4.72,0,0,0-1.64-1.73l-9-5.21a1.63,1.63,0,0,0-1.64-.16l-46,26.54a1.63,1.63,0,0,1,1.64.16l9,5.21a4.89,4.89,0,0,1,1.64,1.73,4.7,4.7,0,0,1,.68,2.29v10.42a1.62,1.62,0,0,1-.68,1.49l46-26.54a1.62,1.62,0,0,0,.68-1.49V480.57A4.73,4.73,0,0,0,395.2,478.29Z"/><path class="cls-17" d="M314.88,527.75a5.21,5.21,0,0,0-2.37-4.09l-9.25-5.31c-1.31-.74-2.38-.13-2.38,1.36v10.61a5.23,5.23,0,0,0,2.38,4.09l9.25,5.31c1.3.74,2.37.13,2.37-1.36Z"/><path class="cls-17" d="M314.88,507.75a5.21,5.21,0,0,0-2.37-4.09l-9.25-5.31c-1.31-.74-2.38-.13-2.38,1.36v10.61a5.23,5.23,0,0,0,2.38,4.09l9.25,5.31c1.3.74,2.37.13,2.37-1.36Z"/><path class="cls-17" d="M332.88,517.75a5.21,5.21,0,0,0-2.37-4.09l-9.25-5.31c-1.31-.74-2.38-.13-2.38,1.36v10.61a5.23,5.23,0,0,0,2.38,4.09l9.25,5.31c1.3.74,2.37.13,2.37-1.36Z"/><path class="cls-17" d="M314.88,486.75a4.83,4.83,0,0,0-.7-2.33,4.89,4.89,0,0,0-1.67-1.76l-9.25-5.31a1.71,1.71,0,0,0-1.68-.16,1.66,1.66,0,0,0-.7,1.52v10.61a4.76,4.76,0,0,0,.7,2.32,4.86,4.86,0,0,0,1.68,1.77l9.25,5.3a1.44,1.44,0,0,0,2.37-1.36Z"/><path class="cls-17" d="M332.88,537.75a5.21,5.21,0,0,0-2.37-4.09l-9.25-5.31c-1.31-.74-2.38-.13-2.38,1.36v10.61a5.23,5.23,0,0,0,2.38,4.09l9.25,5.31c1.3.74,2.37.13,2.37-1.36Z"/><path class="cls-17" d="M332.88,497.75a5.21,5.21,0,0,0-2.37-4.09l-9.25-5.31c-1.31-.74-2.38-.13-2.38,1.36v10.61a5.23,5.23,0,0,0,2.38,4.09l9.25,5.31c1.3.74,2.37.13,2.37-1.36Z"/><path class="cls-17" d="M349.88,547.75a5.21,5.21,0,0,0-2.37-4.09l-9.25-5.31c-1.31-.74-2.38-.13-2.38,1.36v10.61a5.23,5.23,0,0,0,2.38,4.09l9.25,5.31c1.3.74,2.37.13,2.37-1.36Z"/><path class="cls-17" d="M349.88,527.75a5.21,5.21,0,0,0-2.37-4.09l-9.25-5.31c-1.31-.74-2.38-.13-2.38,1.36v10.61a5.23,5.23,0,0,0,2.38,4.09l9.25,5.31c1.3.74,2.37.13,2.37-1.36Z"/><path class="cls-17" d="M349.88,507.75a5.21,5.21,0,0,0-2.37-4.09l-9.25-5.31c-1.31-.74-2.38-.13-2.38,1.36v10.61a5.23,5.23,0,0,0,2.38,4.09l9.25,5.31c1.3.74,2.37.13,2.37-1.36Z"/><path class="cls-2" d="M227.88,84l-49,28,49,28,49-28Zm0,48.18L192.59,112l35.29-20.17L263.18,112Z"/><path class="cls-13" d="M227.88,140.37V197l49-28.33V112ZM270,164.73l-35.29,20.42V144.33L270,123.92Z"/><path class="cls-17" d="M178.88,112V168.7l49,28.33V140.37ZM221,185.15l-35.29-20.42V123.92L221,144.33Z"/><path class="cls-18" d="M196.47,114l31.41-17.89V92l-35,20Z"/><path class="cls-18" d="M189.88,126.14v36.79l-4,2.1V124Z"/><path class="cls-31" d="M185.88,165.08l35,19.95v-4.1L189.48,163Z"/><path class="cls-72" d="M188.88,126V162.7l32,18.33V144.37Z"/><path class="cls-17" d="M259.28,114l-31.4-17.89V92l35,20Z"/><path class="cls-17" d="M266.88,126.14v36.79l4,2.1V124Z"/><path class="cls-31" d="M269.88,165.08l-35,19.95v-4.1l31.4-17.9Z"/><path class="cls-73" d="M266.88,126V162.7l-32,18.33V144.37Z"/><path class="cls-74" d="M195.88,114.53,227.38,96l31.5,18.5L227.38,133Z"/><path class="cls-20" d="M195.88,114l31.4-18,3.6,2.06L199.48,116Z"/><path class="cls-20" d="M231.88,98l-4-6v4Z"/><path class="cls-75" d="M406.58,456h-25.7l16.31,9.51-6.54,3.8,9.77,5.69h6.16l16.3-9.49Zm-25.7,19h8.62l-4.31-2.5Z"/><path class="cls-26" d="M380.88,475l16-9.56V446l-16,9.57Z"/><path class="cls-27" d="M380.88,475l-16-9.56V446l16,9.57Z"/><path class="cls-9" d="M380.88,456l-16-9.5,16-9.5,16,9.5Z"/><path class="cls-76" d="M653.88,420l-29-16.5,29-16.5,29,16.5Z"/><path class="cls-76" d="M624.88,404v33.34l29,16.66,29-16.66V404"/><path class="cls-76" d="M653.88,421v33"/><path class="cls-28" d="M651.88,387a2,2,0,1,1,2,2A2,2,0,0,1,651.88,387Z"/><path class="cls-28" d="M622.88,404a2,2,0,1,1,2,2A2,2,0,0,1,622.88,404Z"/><path class="cls-28" d="M622.88,437a2,2,0,1,1,2,2A2,2,0,0,1,622.88,437Z"/><path class="cls-28" d="M651.88,454a2,2,0,1,1,2,2A2,2,0,0,1,651.88,454Z"/><path class="cls-28" d="M651.88,420a2,2,0,1,1,2,2A2,2,0,0,1,651.88,420Z"/><path class="cls-28" d="M680.88,404a2,2,0,1,1,2,2A2,2,0,0,1,680.88,404Z"/><path class="cls-28" d="M680.88,437a2,2,0,1,1,2,2A2,2,0,0,1,680.88,437Z"/><path class="cls-76" d="M173.39,172l-24.51-14,24.5-14,24.5,14Z"/><path class="cls-76" d="M148.88,158v28l24.51,14,24.49-14V158"/><path class="cls-76" d="M173.88,172v28"/><path class="cls-28" d="M170.88,144a2,2,0,1,1,2,2A2,2,0,0,1,170.88,144Z"/><path class="cls-28" d="M146.88,158a2,2,0,1,1,2,2A2,2,0,0,1,146.88,158Z"/><path class="cls-28" d="M146.88,186a2,2,0,1,1,2,2A2,2,0,0,1,146.88,186Z"/><path class="cls-28" d="M170.88,200a2,2,0,1,1,2,2A2,2,0,0,1,170.88,200Z"/><path class="cls-28" d="M170.88,172a2,2,0,1,1,2,2A2,2,0,0,1,170.88,172Z"/><path class="cls-28" d="M195.88,158a2,2,0,1,1,2,2A2,2,0,0,1,195.88,158Z"/><path class="cls-28" d="M195.88,186a2,2,0,1,1,2,2A2,2,0,0,1,195.88,186Z"/><path class="cls-77" d="M449.8,580.37A20.44,20.44,0,0,0,439.3,578H429v1a15.8,15.8,0,0,0-3.13,1.35c-5.37,3.13-5.34,8.2.07,11.33A15.46,15.46,0,0,0,429,593v1h11.45a19.87,19.87,0,0,0,9.39-2.33C455.24,588.57,455.21,583.5,449.8,580.37Z"/><path class="cls-78" d="M419,591.69c-2.76-1.58-4.14-3.64-4.13-5.71v-9c0,2.07,1.37,4.14,4.13,5.71,5.48,3.13,14.34,3.13,19.79,0,2.71-1.55,4.06-3.59,4.07-5.63v8.95c0,2-1.36,4.07-4.07,5.63C433.36,594.82,424.5,594.82,419,591.69Z"/><path class="cls-5" d="M419,582.69c-5.49-3.13-5.52-8.2-.08-11.31s14.32-3.13,19.81,0,5.51,8.18.06,11.32S424.51,585.81,419,582.69Z"/><path class="cls-6" d="M431.88,578.78a9.83,9.83,0,0,1-4,1.24,6.5,6.5,0,0,1-3.57-.75c-1.08-.58-1.55-1.22-1.4-1.91s.86-1.39,2.18-2.11l1.82-1a9.62,9.62,0,0,1,4-1.22,6.46,6.46,0,0,1,3.54.75c1.08.57,1.55,1.21,1.41,1.89s-.87,1.4-2.18,2.12Zm0-2.13a3.33,3.33,0,0,0,1.45-1.15c.16-.32,0-.6-.49-.86a2.58,2.58,0,0,0-1.55-.27,6.35,6.35,0,0,0-2,.72l-2.4,1.29a3.56,3.56,0,0,0-1.47,1.14c-.17.33,0,.63.47.88a2.49,2.49,0,0,0,1.6.26,6.47,6.47,0,0,0,2.05-.75Z"/><path class="cls-79" d="M482.88,434.43c4.83-7.33,36.34-.86,56,1.51V444Z"/><path class="cls-72" d="M534.81,400.28c-8.16,4.07,2.49,22.4,10.48,36.75l32.59-13.8C564.36,409.1,538.94,398.23,534.81,400.28Z"/><path class="cls-80" d="M577.83,423l-32.74,13.8c1.28,2.29,2.5,4.49,3.55,6.5-5.8-1.15-14.37-1.31-20.75-2.8-13.2-3.09-40.42-16-45.33-4.35-8.07,19.18,58,39.2,73.56,34s23.35-9.27,28.3-19.82c1.62-3.47,2.13-13.48.3-17.64A35.09,35.09,0,0,0,577.83,423Z"/><path class="cls-22" d="M568.88,366c7,1.12,10,5.8,10,11.78S568.88,366,568.88,366Z"/><path class="cls-81" d="M572.26,452.85c-14.44,8-34.23,8.84-39.38-1,9.83-32.43,13.76-57.26,10.88-70.15,3.36-6.35,10.68-15.48,15.28-16.41,19.73-4,29.31,30.63,27.66,67.51C585.17,442.66,579.36,448.92,572.26,452.85Z"/><path class="cls-82" d="M570.25,367.3c-4.29-3.07-3.65-5.07-3-9.25a20.46,20.46,0,0,0,1.3-7.19c0-9.3-6-16.83-13.33-16.83s-13.33,7.53-13.33,16.83c0,8.61,5.12,15.7,11.74,16.69-.3.51-.63,1-1,1.57a29.9,29.9,0,0,0-3.55,4.64c7.22,5.57,14.24-.7,17-1.94C569.06,370.49,572.27,369.35,570.25,367.3Z"/><path class="cls-35" d="M571.17,339.25c-1.91-3.11-5.43-1.5-6.69-2.64l-.7-.59h0c-1.62-1.65-.5-2.27-2-3.8s-3.56-.48-4.6-1.15h0c-2.48-1.55-4.83-2.53-6.14-1.8a7.82,7.82,0,0,0-1.85,1.49c-1.29,1.32-3.94-1.47-4.57,1.9s.33,4.63-.48,9.9c0,.09-.06.44-.08.55h0c-.4,3.19-.15,6.2,1.05,8.14.35.56.73,1.09,1.12,1.63,0-1.79,3.75-5.93,3.75,2,0,.86-.63,1-.08,2.15s4.11,4,6.46,6.37c3.28,3.33,5.21.35,10.63.94a8.87,8.87,0,0,1,1.42-5,25.44,25.44,0,0,0,2.23-9.07h0C570.67,345.9,573,342.3,571.17,339.25Z"/><path class="cls-82" d="M522.92,434.31a18,18,0,0,0-10,1.15c2.08,1.14,6.32,4.42,9.44,3.37S522.92,434.31,522.92,434.31Z"/><path class="cls-83" d="M543.47,383.45c-3.63,15.23-6,27.63-9.17,39.45-2.68,5.09-7.55,7.73-11.83,10.88-1.93,1.52-3,7,2.33,6.16,8.52-1.15,14.49-4.23,19-9.92,8.36-10.58,9-19.89,12.6-33.55C559.69,383.92,545.54,374.77,543.47,383.45Z"/><rect class="cls-2" x="511.88" y="64.03" width="300" height="70" rx="10"/><path d="M583,106.3a6.22,6.22,0,0,1-4.48-1.8,6.45,6.45,0,0,1-1.86-4.86,6.81,6.81,0,0,1,.94-3.6A5.92,5.92,0,0,1,580,93.76a6.29,6.29,0,0,1,3-.76,5.91,5.91,0,0,1,3.63,1.1,5.05,5.05,0,0,1,2,3l-1.63.58a3.88,3.88,0,0,0-1.39-2.22,4.16,4.16,0,0,0-2.59-.79A4.41,4.41,0,0,0,579.82,96a5.81,5.81,0,0,0,0,7.4,4.37,4.37,0,0,0,3.21,1.33,4.09,4.09,0,0,0,2.61-.82,4.51,4.51,0,0,0,1.46-2.24l1.56.58a5.57,5.57,0,0,1-2,3A5.86,5.86,0,0,1,583,106.3Zm12.33-9v1.8a4.59,4.59,0,0,0-.73-.06c-1.59,0-2.38.89-2.38,2.67V106h-1.69V97.38h1.65v1.51a2.69,2.69,0,0,1,2.6-1.66A2.51,2.51,0,0,1,595.36,97.29Zm4.23,12.36h-1.85l2.16-4.57-3.73-7.7h1.94l2.7,6,2.6-6h1.81Zm8.94-.2h-1.68V97.38h1.64v1.35a2.9,2.9,0,0,1,1.13-1.12,3.92,3.92,0,0,1,4.68.85,5.43,5.43,0,0,1,0,6.51,3.61,3.61,0,0,1-2.94,1.3,3.46,3.46,0,0,1-1.69-.4,2.8,2.8,0,0,1-1.11-1Zm5.11-7.75a3.3,3.3,0,0,0-.7-2.16,2.25,2.25,0,0,0-1.86-.87,2.31,2.31,0,0,0-1.87.87,3.24,3.24,0,0,0-.7,2.16,3.38,3.38,0,0,0,.7,2.21,2.35,2.35,0,0,0,1.87.85,2.32,2.32,0,0,0,1.86-.85A3.44,3.44,0,0,0,613.64,101.7Zm6.06-7.06v2.74h1.87v1.53H619.7v4.5a1,1,0,0,0,1.21,1.18,2.62,2.62,0,0,0,.66-.07V106a3.27,3.27,0,0,1-1.15.16,2.38,2.38,0,0,1-1.76-.64,2.48,2.48,0,0,1-.65-1.82V98.91h-1.66V97.38h.47a1.25,1.25,0,0,0,1-.36,1.41,1.41,0,0,0,.34-1v-1.4Zm5.83,9.34a2.59,2.59,0,0,0,1.92.81,2.52,2.52,0,0,0,1.91-.81,3.15,3.15,0,0,0,.79-2.28,3.07,3.07,0,0,0-.79-2.25,2.47,2.47,0,0,0-1.91-.83,2.54,2.54,0,0,0-1.92.83,3.11,3.11,0,0,0-.78,2.25A3.19,3.19,0,0,0,625.53,104Zm-1.26-5.56a4.2,4.2,0,0,1,3.18-1.31,4.15,4.15,0,0,1,3.17,1.31,4.51,4.51,0,0,1,1.26,3.28,4.63,4.63,0,0,1-1.24,3.31,4.58,4.58,0,0,1-6.37,0A4.63,4.63,0,0,1,623,101.7,4.54,4.54,0,0,1,624.27,98.42Zm16.22.81h2.56a2.65,2.65,0,0,0,1.8-.58,2,2,0,0,0,.66-1.58,2,2,0,0,0-.66-1.6,2.57,2.57,0,0,0-1.8-.61h-2.56Zm2.88,1.58h-2.88V106h-1.76V93.27h4.64a3.88,3.88,0,0,1,2.84,1.08,3.86,3.86,0,0,1,0,5.4A3.9,3.9,0,0,1,643.37,100.81Zm10.46-3.52v1.8a4.71,4.71,0,0,0-.74-.06c-1.58,0-2.38.89-2.38,2.67V106H649V97.38h1.66v1.51a2.68,2.68,0,0,1,2.59-1.66A2.6,2.6,0,0,1,653.83,97.29Zm3.5,6.69a2.58,2.58,0,0,0,1.92.81,2.54,2.54,0,0,0,1.91-.81,3.15,3.15,0,0,0,.79-2.28,3.07,3.07,0,0,0-.79-2.25,2.49,2.49,0,0,0-1.91-.83,2.52,2.52,0,0,0-1.92.83,3.11,3.11,0,0,0-.78,2.25A3.19,3.19,0,0,0,657.33,104Zm-1.26-5.56a4.2,4.2,0,0,1,3.18-1.31,4.15,4.15,0,0,1,3.17,1.31,4.51,4.51,0,0,1,1.26,3.28,4.63,4.63,0,0,1-1.24,3.31,4.58,4.58,0,0,1-6.37,0,4.63,4.63,0,0,1-1.25-3.31A4.54,4.54,0,0,1,656.07,98.42Zm14.13.49h-2.09V106h-1.74V98.91h-1.61V97.38h1.61V95.92a2.9,2.9,0,0,1,.81-2.18,2.77,2.77,0,0,1,2-.79,1.86,1.86,0,0,1,1,.18v1.51a2.1,2.1,0,0,0-.74-.11,1.51,1.51,0,0,0-1,.34,1.4,1.4,0,0,0-.4,1.14v1.37h2.09Zm2.56,1.9h4.74a2.2,2.2,0,0,0-2.38-2.21,2.22,2.22,0,0,0-1.66.67A2.32,2.32,0,0,0,672.76,100.81Zm5,2.25,1.46.51a3.94,3.94,0,0,1-1.41,2,4.08,4.08,0,0,1-2.48.75,4.28,4.28,0,0,1-3.1-1.24,5.08,5.08,0,0,1,0-6.66,4.15,4.15,0,0,1,6-.05,4.74,4.74,0,0,1,1.1,3.29,2.7,2.7,0,0,1,0,.54h-6.51a2.55,2.55,0,0,0,2.61,2.63A2.35,2.35,0,0,0,677.75,103.06Zm2.86.72,1.53-.54a1.81,1.81,0,0,0,.61,1.17,2.09,2.09,0,0,0,1.41.45,1.65,1.65,0,0,0,1.08-.32,1.06,1.06,0,0,0,.39-.83c0-.57-.37-.95-1.11-1.11l-1.48-.33a2.81,2.81,0,0,1-1.58-.86,2.26,2.26,0,0,1-.58-1.57,2.5,2.5,0,0,1,.9-1.92,3.18,3.18,0,0,1,2.18-.81,4,4,0,0,1,1.47.25,2.3,2.3,0,0,1,1,.63,3.52,3.52,0,0,1,.54.74,3,3,0,0,1,.27.7l-1.49.56a1.87,1.87,0,0,0-.13-.42,1.94,1.94,0,0,0-.29-.47,1.18,1.18,0,0,0-.54-.39,2,2,0,0,0-.84-.16,1.6,1.6,0,0,0-1.05.34,1.05,1.05,0,0,0-.39.81c0,.55.33.9,1,1l1.4.31a3.27,3.27,0,0,1,1.77.93,2.3,2.3,0,0,1,.63,1.64,2.58,2.58,0,0,1-.85,1.86,3.14,3.14,0,0,1-2.32.82,3.64,3.64,0,0,1-2.5-.79A2.85,2.85,0,0,1,680.61,103.78Zm8.14,0,1.53-.54a1.81,1.81,0,0,0,.61,1.17,2.08,2.08,0,0,0,1.4.45,1.62,1.62,0,0,0,1.08-.32,1,1,0,0,0,.4-.83c0-.57-.37-.95-1.12-1.11l-1.47-.33a2.87,2.87,0,0,1-1.59-.86,2.3,2.3,0,0,1-.57-1.57,2.5,2.5,0,0,1,.9-1.92,3.18,3.18,0,0,1,2.18-.81,4,4,0,0,1,1.47.25,2.36,2.36,0,0,1,1,.63,3.52,3.52,0,0,1,.54.74,3,3,0,0,1,.27.7l-1.49.56a1.87,1.87,0,0,0-.13-.42,2.31,2.31,0,0,0-.29-.47,1.18,1.18,0,0,0-.54-.39,2,2,0,0,0-.84-.16,1.6,1.6,0,0,0-1.05.34,1.05,1.05,0,0,0-.39.81c0,.55.33.9,1,1l1.4.31a3.2,3.2,0,0,1,1.76.93,2.3,2.3,0,0,1,.63,1.64,2.56,2.56,0,0,1-.84,1.86,3.14,3.14,0,0,1-2.32.82,3.67,3.67,0,0,1-2.51-.79A2.83,2.83,0,0,1,688.75,103.78ZM699.37,106H697.7V97.38h1.67ZM697.66,95a1.22,1.22,0,1,1,1.73-1.72,1.12,1.12,0,0,1,.36.86,1.16,1.16,0,0,1-.36.86,1.24,1.24,0,0,1-1.73,0Zm6.37,9a2.6,2.6,0,0,0,1.93.81,2.55,2.55,0,0,0,1.91-.81,3.19,3.19,0,0,0,.79-2.28,3.11,3.11,0,0,0-.79-2.25,2.5,2.5,0,0,0-1.91-.83,2.54,2.54,0,0,0-1.93.83,3.15,3.15,0,0,0-.77,2.25A3.23,3.23,0,0,0,704,104Zm-1.26-5.56A4.21,4.21,0,0,1,706,97.11a4.16,4.16,0,0,1,3.17,1.31,4.51,4.51,0,0,1,1.26,3.28,4.63,4.63,0,0,1-1.25,3.31,4.58,4.58,0,0,1-6.37,0,4.63,4.63,0,0,1-1.24-3.31A4.54,4.54,0,0,1,702.77,98.42ZM714.24,101v5h-1.69V97.38h1.66v1.24a2.85,2.85,0,0,1,2.66-1.5,2.8,2.8,0,0,1,2.29,1,3.67,3.67,0,0,1,.81,2.46V106h-1.7v-5.2c0-1.45-.67-2.18-2-2.18a1.8,1.8,0,0,0-1.5.69A2.7,2.7,0,0,0,714.24,101Zm7.88,2.68a2.31,2.31,0,0,1,.72-1.78,3.31,3.31,0,0,1,1.91-.85l2.34-.34c.44-.06.66-.27.66-.65a1.42,1.42,0,0,0-.47-1.11,2,2,0,0,0-1.4-.43,1.91,1.91,0,0,0-1.37.48,2,2,0,0,0-.59,1.26l-1.62-.38a2.79,2.79,0,0,1,1.13-2,3.78,3.78,0,0,1,2.41-.79,3.66,3.66,0,0,1,2.72.9,3,3,0,0,1,.88,2.26v4.34a8.81,8.81,0,0,0,.11,1.42H727.9a7.13,7.13,0,0,1-.09-1.17A3.21,3.21,0,0,1,725,106.3a2.94,2.94,0,0,1-2.09-.75A2.47,2.47,0,0,1,722.12,103.71Zm3.13,1.17a2.62,2.62,0,0,0,1.82-.61,2.51,2.51,0,0,0,.68-1.94v-.4l-2.64.4a1.63,1.63,0,0,0-.92.41,1.15,1.15,0,0,0-.34.88,1.19,1.19,0,0,0,.37.88A1.41,1.41,0,0,0,725.25,104.88Zm8.52,1.15h-1.69V93h1.69Z"/><g class="cls-84"><path class="cls-85" d="M554.88,102a1,1,0,1,0-1-1A1,1,0,0,0,554.88,102Z"/><path class="cls-85" d="M541.57,111h14.62a2.82,2.82,0,0,0,2.82-2.81.94.94,0,0,0-1.88,0,.94.94,0,0,1-.94.94H541.57a2.81,2.81,0,0,1-2.81-2.81v-.75h4.5a.93.93,0,0,1,.93.93.94.94,0,1,0,1.88,0,2.81,2.81,0,0,0-2.81-2.81h-4.5v-1.87H547a.94.94,0,0,0,0-1.88h-8.25V98.1h4.5a2.82,2.82,0,0,0,2.81-2.82.94.94,0,0,0-1.88,0,.94.94,0,0,1-.93.94h-4.5V92.5a2.88,2.88,0,0,0,.93.16h16.5a.94.94,0,0,1,.94.94v2.62h-2.62a4.69,4.69,0,1,0,0,9.38h3.56a2.82,2.82,0,0,0,2.81-2.82V99A2.82,2.82,0,0,0,559,96.38V93.6A2.81,2.81,0,0,0,557.13,91v-1.1A2.82,2.82,0,0,0,554.32,87H539.69a2.82,2.82,0,0,0-2.81,2.82v16.5A4.69,4.69,0,0,0,541.57,111ZM559,102.78a.94.94,0,0,1-.94.94h-3.56a2.81,2.81,0,1,1,0-5.62h3.56A.94.94,0,0,1,559,99ZM539.69,88.91h14.63a.94.94,0,0,1,.94.94v.93H539.69a.94.94,0,0,1,0-1.87Z"/></g><rect class="cls-2" x="554.88" y="215.03" width="257" height="70" rx="10"/><path d="M622.3,257h-1.8V244.27h1.8Zm4.76-5v5h-1.69v-8.65H627v1.24a2.88,2.88,0,0,1,2.67-1.5,2.79,2.79,0,0,1,2.28,1,3.67,3.67,0,0,1,.81,2.46V257h-1.69v-5.2c0-1.45-.67-2.18-2-2.18a1.79,1.79,0,0,0-1.49.69A2.64,2.64,0,0,0,627.06,252Zm15.83-3.65L639.43,257h-1.71l-3.51-8.65h1.91l2.47,6.67,2.48-6.67Zm2.45,3.43h4.74a2.2,2.2,0,0,0-2.38-2.21,2.18,2.18,0,0,0-1.65.67A2.29,2.29,0,0,0,645.34,251.81Zm5,2.25,1.46.51a3.88,3.88,0,0,1-1.41,2,4.08,4.08,0,0,1-2.48.75,4.29,4.29,0,0,1-3.1-1.24,5.08,5.08,0,0,1,0-6.66,4.15,4.15,0,0,1,6-.05,4.69,4.69,0,0,1,1.1,3.29,4,4,0,0,1,0,.54h-6.52a2.58,2.58,0,0,0,.76,1.89,2.55,2.55,0,0,0,1.85.74A2.33,2.33,0,0,0,650.33,254.06Zm2.86.72,1.53-.54a1.86,1.86,0,0,0,.61,1.17,2.09,2.09,0,0,0,1.41.45,1.65,1.65,0,0,0,1.08-.32,1.06,1.06,0,0,0,.39-.83c0-.57-.37-1-1.11-1.11l-1.48-.33a2.81,2.81,0,0,1-1.58-.86,2.26,2.26,0,0,1-.58-1.57,2.5,2.5,0,0,1,.9-1.92,3.18,3.18,0,0,1,2.18-.81,4.07,4.07,0,0,1,1.48.25,2.33,2.33,0,0,1,1,.63,3.52,3.52,0,0,1,.54.74,3,3,0,0,1,.27.7l-1.49.56a1.47,1.47,0,0,0-.13-.42,2.22,2.22,0,0,0-.28-.47,1.18,1.18,0,0,0-.54-.39,2,2,0,0,0-.85-.16,1.55,1.55,0,0,0-1,.34,1,1,0,0,0-.4.81c0,.55.33.9,1,1l1.4.31a3.27,3.27,0,0,1,1.77.93,2.3,2.3,0,0,1,.63,1.64,2.54,2.54,0,0,1-.85,1.86,3.13,3.13,0,0,1-2.32.82,3.64,3.64,0,0,1-2.5-.79A2.9,2.9,0,0,1,653.19,254.78Zm11.22-9.14v2.74h1.87v1.53h-1.87v4.5a1.31,1.31,0,0,0,.27.9,1.28,1.28,0,0,0,.93.28,2.65,2.65,0,0,0,.67-.07V257a3.31,3.31,0,0,1-1.15.16,2.4,2.4,0,0,1-1.77-.64,2.48,2.48,0,0,1-.64-1.82v-4.75h-1.66v-1.53h.47a1.28,1.28,0,0,0,1-.36,1.41,1.41,0,0,0,.34-1v-1.4ZM670,257h-1.68v-8.65H670v1.15a2.64,2.64,0,0,1,1.12-1.05,3.32,3.32,0,0,1,1.51-.36,3,3,0,0,1,1.55.42,2.46,2.46,0,0,1,1,1.22,3.07,3.07,0,0,1,2.9-1.64,2.93,2.93,0,0,1,2.11.85,3.26,3.26,0,0,1,.88,2.45V257h-1.68V251.6a2.13,2.13,0,0,0-.46-1.44,1.69,1.69,0,0,0-1.37-.54,1.83,1.83,0,0,0-1.44.63,2.22,2.22,0,0,0-.56,1.55V257h-1.69V251.6a2.13,2.13,0,0,0-.47-1.44,1.69,1.69,0,0,0-1.37-.54,1.89,1.89,0,0,0-1.46.61,2.27,2.27,0,0,0-.55,1.58Zm14.85-5.22h4.74a2.2,2.2,0,0,0-2.38-2.21,2.18,2.18,0,0,0-1.65.67A2.29,2.29,0,0,0,684.89,251.81Zm5,2.25,1.46.51a3.88,3.88,0,0,1-1.41,2,4.08,4.08,0,0,1-2.48.75,4.29,4.29,0,0,1-3.1-1.24,5.08,5.08,0,0,1,0-6.66,4.15,4.15,0,0,1,6-.05,4.69,4.69,0,0,1,1.1,3.29,4,4,0,0,1,0,.54h-6.52a2.58,2.58,0,0,0,.76,1.89,2.55,2.55,0,0,0,1.85.74A2.33,2.33,0,0,0,689.88,254.06Zm5.36-2v5h-1.69v-8.65h1.66v1.24a2.85,2.85,0,0,1,2.66-1.5,2.8,2.8,0,0,1,2.29,1,3.67,3.67,0,0,1,.81,2.46V257h-1.69v-5.2c0-1.45-.68-2.18-2-2.18a1.78,1.78,0,0,0-1.49.69A2.65,2.65,0,0,0,695.24,252Zm10.69-6.39v2.74h1.87v1.53h-1.87v4.5a1.31,1.31,0,0,0,.27.9,1.28,1.28,0,0,0,.93.28,2.65,2.65,0,0,0,.67-.07V257a3.31,3.31,0,0,1-1.15.16,2.4,2.4,0,0,1-1.77-.64,2.48,2.48,0,0,1-.64-1.82v-4.75h-1.66v-1.53h.47a1.28,1.28,0,0,0,1-.36,1.41,1.41,0,0,0,.34-1v-1.4ZM716.5,257h-1.76V244.27h7.76v1.64h-6V250h5.44v1.66H716.5Zm12.87-1a2.32,2.32,0,0,1-1,1,3.54,3.54,0,0,1-1.52.32,3,3,0,0,1-2.35-1,3.61,3.61,0,0,1-.89-2.5v-5.45h1.7v5.2a2.61,2.61,0,0,0,.46,1.6,1.79,1.79,0,0,0,1.5.63,2,2,0,0,0,1.53-.59,2.41,2.41,0,0,0,.52-1.62v-5.22H731v7.05a13.41,13.41,0,0,0,.09,1.6h-1.62A5.84,5.84,0,0,1,729.37,256Zm6.18-4v5h-1.69v-8.65h1.65v1.24a2.88,2.88,0,0,1,2.67-1.5,2.78,2.78,0,0,1,2.28,1,3.67,3.67,0,0,1,.81,2.46V257h-1.69v-5.2c0-1.45-.67-2.18-2-2.18a1.8,1.8,0,0,0-1.5.69A2.64,2.64,0,0,0,735.55,252Zm9.42.65a3.58,3.58,0,0,0,.67,2.23,2.25,2.25,0,0,0,1.87.86,2.18,2.18,0,0,0,1.82-.88,3.55,3.55,0,0,0,.68-2.25,3.41,3.41,0,0,0-.66-2.18,2.22,2.22,0,0,0-1.82-.82,2.28,2.28,0,0,0-1.85.84A3.34,3.34,0,0,0,745,252.68Zm5.06,3.18v-.14a2.92,2.92,0,0,1-1,1.12,3.08,3.08,0,0,1-1.64.43,3.77,3.77,0,0,1-3-1.3,4.91,4.91,0,0,1-1.11-3.29,4.7,4.7,0,0,1,1.15-3.21,3.75,3.75,0,0,1,3-1.33,3.21,3.21,0,0,1,1.73.43,2.26,2.26,0,0,1,.92,1V244h1.67v11.43a12.93,12.93,0,0,0,.09,1.6h-1.64A6.63,6.63,0,0,1,750,255.86Zm3.71-1.08,1.53-.54a1.81,1.81,0,0,0,.61,1.17,2.08,2.08,0,0,0,1.4.45,1.62,1.62,0,0,0,1.08-.32,1,1,0,0,0,.4-.83c0-.57-.37-1-1.12-1.11l-1.47-.33a2.87,2.87,0,0,1-1.59-.86,2.3,2.3,0,0,1-.57-1.57,2.5,2.5,0,0,1,.9-1.92,3.18,3.18,0,0,1,2.18-.81,4,4,0,0,1,1.47.25,2.36,2.36,0,0,1,1,.63,3.52,3.52,0,0,1,.54.74,3,3,0,0,1,.27.7l-1.49.56a1.87,1.87,0,0,0-.13-.42,2.31,2.31,0,0,0-.29-.47,1.18,1.18,0,0,0-.54-.39,2,2,0,0,0-.84-.16,1.6,1.6,0,0,0-1.05.34,1.05,1.05,0,0,0-.39.81c0,.55.33.9,1,1l1.4.31a3.2,3.2,0,0,1,1.76.93,2.3,2.3,0,0,1,.63,1.64,2.56,2.56,0,0,1-.84,1.86,3.14,3.14,0,0,1-2.32.82,3.67,3.67,0,0,1-2.51-.79A2.83,2.83,0,0,1,753.74,254.78Z"/><g class="cls-86"><path class="cls-87" d="M602.29,248.72h-8.7a4.36,4.36,0,0,0,3-4.57.47.47,0,0,0-.42-.42,4.33,4.33,0,0,0-3.5,1.25,4,4,0,0,0-.34.38v-2.11a4.37,4.37,0,0,0,4.26-4.77.48.48,0,0,0-.42-.43,4.37,4.37,0,0,0-4.74,3.74,3.16,3.16,0,0,0-.38-.44,4.31,4.31,0,0,0-3.49-1.25.48.48,0,0,0-.43.42,4.35,4.35,0,0,0,4.26,4.77v3.43h-9.93a1.6,1.6,0,0,0-1.6,1.59v10.13a1.6,1.6,0,0,0,1.6,1.59h8.29a.47.47,0,1,0,0-.93h-5.93a3.47,3.47,0,0,0-3-3v-5.4a3.48,3.48,0,0,0,3-3h16.08a3.49,3.49,0,0,0,3,3v5.4a3.48,3.48,0,0,0-3,3H594a.47.47,0,1,0,0,.93h8.3a1.59,1.59,0,0,0,1.59-1.59V250.31A1.59,1.59,0,0,0,602.29,248.72Zm-8.94-3.07a3.4,3.4,0,0,1,2.34-1,3.42,3.42,0,0,1-3.34,3.34A3.38,3.38,0,0,1,593.35,245.65Zm0-5.68a3.4,3.4,0,0,1,2.34-1,3.42,3.42,0,0,1-3.34,3.34A3.42,3.42,0,0,1,593.35,240Zm-4.28,3.38a3.42,3.42,0,0,1-1-2.33,3.42,3.42,0,0,1,3.34,3.33h0A3.43,3.43,0,0,1,589.07,243.35Zm-6.18,17.75h-1.41a.66.66,0,0,1-.66-.66V259A2.54,2.54,0,0,1,582.89,261.1Zm-2.07-9.37v-1.42a.65.65,0,0,1,.66-.65h1.41A2.53,2.53,0,0,1,580.82,251.73Zm20-2.07h1.42a.65.65,0,0,1,.65.65v1.42A2.54,2.54,0,0,1,600.87,249.66Zm1.42,11.44h-1.42a2.55,2.55,0,0,1,2.07-2.08v1.42A.66.66,0,0,1,602.29,261.1Z"/><path class="cls-87" d="M595.88,256a4,4,0,1,0-4,4A4,4,0,0,0,595.88,256Zm-7,0a3,3,0,1,1,3,3A3,3,0,0,1,588.86,256Z"/><path class="cls-87" d="M583.88,255.53a1.5,1.5,0,1,0,1.5-1.5A1.5,1.5,0,0,0,583.88,255.53Zm2.06,0a.56.56,0,1,1-1.12,0,.56.56,0,1,1,1.12,0Z"/><path class="cls-87" d="M599.88,255.53a1.5,1.5,0,1,0-1.5,1.5A1.5,1.5,0,0,0,599.88,255.53Zm-2.06,0a.56.56,0,1,1,1.12,0,.56.56,0,1,1-1.12,0Z"/><path class="cls-87" d="M592.38,261a.5.5,0,0,0-.35.86.51.51,0,0,0,.7,0,.51.51,0,0,0,.15-.36.47.47,0,0,0-.15-.35A.51.51,0,0,0,592.38,261Z"/></g></svg>